<svg width="512" height="442" viewBox="0 0 512 442" fill="none" xmlns="http://www.w3.org/2000/svg">
<g clip-path="url(#clip0_183_189)">
<path d="M80.5167 320.466C81.5258 321.186 82.6233 321.814 83.8123 322.329C226.118 384.468 394.999 337.702 485.359 211.129C491.164 202.997 489.284 191.691 481.144 185.88C473.005 180.07 461.701 181.963 455.896 190.095C375.416 302.828 225.024 344.49 98.2896 289.153C89.123 285.156 78.4541 289.337 74.4618 298.496C70.9741 306.481 73.7034 315.602 80.5167 320.466Z" fill="#B2BE83"/>
<path d="M475.022 187.385C475.288 187.847 475.634 188.265 476.073 188.628C478.003 190.199 480.854 189.924 482.437 187.996C482.528 187.882 491.746 176.766 505.033 169.1C507.197 167.852 507.94 165.083 506.692 162.92C505.444 160.756 502.675 160.013 500.511 161.261C485.742 169.781 475.85 181.756 475.442 182.263C474.213 183.755 474.108 185.801 475.022 187.385Z" fill="#B2BE83"/>
<path d="M474.07 198.676C475.019 200.323 476.956 201.253 478.914 200.845L500.203 196.4C502.646 195.889 504.218 193.488 503.707 191.046C503.192 188.595 500.796 187.031 498.353 187.542L477.077 191.99C474.621 192.497 473.05 194.898 473.56 197.34C473.662 197.825 473.834 198.269 474.07 198.676Z" fill="#B2BE83"/>
<path d="M476.827 211.004C477.781 212.658 479.718 213.588 481.687 213.163L497.635 209.783C500.081 209.26 501.645 206.863 501.122 204.417C500.604 201.979 498.208 200.415 495.761 200.938L479.814 204.318C477.368 204.841 475.804 207.237 476.327 209.683C476.424 210.16 476.596 210.604 476.827 211.004Z" fill="#B2BE83"/>
<path d="M460.85 194.925C462.098 197.089 464.867 197.832 467.031 196.584C469.195 195.335 469.938 192.566 468.69 190.403C468.155 189.457 463.602 180.769 470.899 174.418C472.787 172.764 472.982 169.915 471.341 168.03C469.7 166.145 466.837 165.947 464.953 167.588C454.488 176.706 457.694 189.453 460.85 194.925Z" fill="#B2BE83"/>
<path d="M-11.7745 168.871L-13.7216 414.476C28.6798 407.811 101.193 391.656 126.459 287.32C139.832 232.083 111.103 175.547 56.5454 159.619C52.6361 158.477 48.7375 157.622 44.875 156.966C21.6135 153.003 7.90335 158.306 -11.7745 168.871Z" fill="#B2BE83"/>
<path d="M67.1113 290.302C87.1447 296.151 104.635 292.206 105.73 291.942C108.16 291.369 109.661 288.941 109.091 286.502C108.518 284.072 106.084 282.56 103.654 283.133C103.299 283.218 67.59 291.149 42.4681 265.27C40.728 263.48 37.8566 263.433 36.0664 265.173C34.2762 266.914 34.2324 269.776 35.9699 271.575C45.7639 281.656 56.7819 287.287 67.1113 290.302Z" fill="#4E5E1B" fill-opacity="0.8"/>
<path d="M98.8715 215.273C110.721 218.733 133.094 222.672 153.052 211.566C171.723 201.187 183.316 180.662 187.513 150.559C188.203 145.612 184.763 141.054 179.802 140.35C174.847 139.658 170.275 143.112 169.591 148.07C166.228 172.185 157.73 188.211 144.352 195.704C124.113 207.03 98.0545 195.886 97.7978 195.764C93.2085 193.755 87.8857 195.84 85.8815 200.412C83.8774 204.984 85.9253 210.305 90.4835 212.324C90.8853 212.498 93.9891 213.848 98.8715 215.273Z" fill="#B2BE83"/>
<path d="M177.323 171.214C159.244 165.936 148.867 147.001 154.145 128.922C159.423 110.844 178.358 100.467 196.436 105.745C214.515 111.023 224.892 129.957 219.614 148.036C214.336 166.115 195.401 176.492 177.323 171.214Z" fill="#B2BE83"/>
<path d="M179.588 163.464C165.789 159.436 157.869 144.983 161.897 131.185C165.926 117.386 180.378 109.465 194.177 113.494C207.976 117.522 215.896 131.974 211.868 145.773C207.839 159.572 193.387 167.493 179.588 163.464Z" fill="white"/>
<path d="M195.98 120.311C204.337 122.751 209.154 131.539 206.714 139.896C204.274 148.254 195.486 153.07 187.128 150.63C178.771 148.19 173.954 139.402 176.394 131.044C178.834 122.687 187.623 117.871 195.98 120.311Z" fill="#4E5E1B" fill-opacity="0.8"/>
<path d="M98.7046 75.0258C80.6258 69.7477 70.2489 50.8132 75.527 32.7345C80.8051 14.6557 99.7395 4.27876 117.818 9.55686C135.897 14.835 146.274 33.7694 140.996 51.8482C135.718 69.9269 116.783 80.3039 98.7046 75.0258Z" fill="#B2BE83"/>
<path d="M25.9004 175.2C26.2218 175.294 26.557 175.373 26.906 175.437C28.5925 175.731 43.8559 177.897 61.3993 164.954C85.7829 146.957 101.763 109.725 108.908 54.2812C109.546 49.3197 106.041 44.7893 101.091 44.1455C96.1297 43.5078 91.6019 47.0036 90.9555 51.9625C82.9748 113.884 65.0112 139.375 51.3445 149.857C39.7069 158.782 30.2209 157.624 29.8209 157.573C24.9303 156.919 20.3287 160.28 19.5846 165.154C18.8934 169.685 21.6088 173.947 25.9004 175.2Z" fill="#B2BE83"/>
<path d="M100.968 67.2763C87.1689 63.2477 79.2485 48.7956 83.2771 34.9966C87.3057 21.1976 101.758 13.2772 115.557 17.3058C129.356 21.3344 137.276 35.7865 133.248 49.5855C129.219 63.3845 114.767 71.3049 100.968 67.2763Z" fill="white"/>
<path d="M117.381 24.1227C125.738 26.5626 130.555 35.3509 128.115 43.7083C125.675 52.0656 116.886 56.882 108.529 54.4421C100.172 52.0021 95.3554 43.2139 97.7953 34.8565C100.235 26.4991 109.015 21.6802 117.381 24.1227Z" fill="#4E5E1B" fill-opacity="0.8"/>
</g>
<defs>
<clipPath id="clip0_183_189">
<rect width="512" height="442" fill="white"/>
</clipPath>
</defs>
</svg>
