<svg width="245" height="47" viewBox="0 0 245 47" fill="none" xmlns="http://www.w3.org/2000/svg">
<path d="M244.357 23.4002C244.357 10.808 234.149 0.600098 221.557 0.600098H38.0001C17.0132 0.600098 0 17.6133 0 38.6002C0 42.7976 3.40265 46.2002 7.60002 46.2002H221.557C234.149 46.2002 244.357 35.9923 244.357 23.4002Z" fill="#8BCAF2"/>
<path d="M143.613 37.2786V11.6038H138.755V37.2786H143.613Z" fill="white" fill-opacity="0.5"/>
<path fill-rule="evenodd" clip-rule="evenodd" d="M146.816 27.5985C146.816 25.6556 147.198 23.9323 147.961 22.4289C148.748 20.9254 149.8 19.7689 151.119 18.9593C152.46 18.1497 153.952 17.7449 155.594 17.7449C157.029 17.7449 158.278 18.0341 159.342 18.6123C160.429 19.1906 161.296 19.9192 161.944 20.7982V18.0572H166.836V37.2787H161.944V34.4683C161.319 35.3704 160.452 36.1221 159.342 36.7235C158.254 37.3018 156.994 37.5909 155.56 37.5909C153.941 37.5909 152.46 37.1746 151.119 36.3419C149.8 35.5092 148.748 34.3411 147.961 32.8376C147.198 31.311 146.816 29.5646 146.816 27.5985ZM161.944 27.6679C161.944 26.4883 161.712 25.4821 161.25 24.6494C160.787 23.7936 160.163 23.1459 159.376 22.7064C158.59 22.2438 157.746 22.0125 156.844 22.0125C155.941 22.0125 155.109 22.2323 154.345 22.6717C153.582 23.1112 152.958 23.7589 152.472 24.6147C152.009 25.4474 151.778 26.442 151.778 27.5985C151.778 28.7551 152.009 29.7728 152.472 30.6518C152.958 31.5076 153.582 32.1668 154.345 32.6294C155.132 33.092 155.965 33.3233 156.844 33.3233C157.746 33.3233 158.59 33.1036 159.376 32.6641C160.163 32.2015 160.787 31.5539 161.25 30.7212C161.712 29.8653 161.944 28.8476 161.944 27.6679Z" fill="white" fill-opacity="0.5"/>
<path d="M189.622 18.0572L177.721 46.3689H172.551L176.715 36.7929L169.012 18.0572H174.46L179.421 31.4845L184.452 18.0572H189.622Z" fill="white" fill-opacity="0.5"/>
<path fill-rule="evenodd" clip-rule="evenodd" d="M120.446 20.8329C121.07 19.9539 121.926 19.2253 123.013 18.647C124.123 18.0456 125.384 17.7449 126.795 17.7449C128.437 17.7449 129.918 18.1497 131.236 18.9593C132.578 19.7689 133.63 20.9254 134.393 22.4289C135.18 23.9092 135.573 25.6324 135.573 27.5985C135.573 29.5646 135.18 31.311 134.393 32.8376C133.63 34.3411 132.578 35.5092 131.236 36.3419C129.918 37.1746 128.437 37.5909 126.795 37.5909C125.384 37.5909 124.135 37.3018 123.048 36.7235C121.984 36.1453 121.117 35.4166 120.446 34.5377V46.4383H115.588V18.0572H120.446V20.8329ZM130.612 27.5985C130.612 26.442 130.369 25.4474 129.883 24.6147C129.42 23.7589 128.796 23.1112 128.009 22.6717C127.246 22.2323 126.413 22.0125 125.511 22.0125C124.632 22.0125 123.8 22.2438 123.013 22.7064C122.25 23.1459 121.625 23.7936 121.14 24.6494C120.677 25.5052 120.446 26.5114 120.446 27.6679C120.446 28.8244 120.677 29.8306 121.14 30.6865C121.625 31.5423 122.25 32.2015 123.013 32.6641C123.8 33.1036 124.632 33.3233 125.511 33.3233C126.413 33.3233 127.246 33.092 128.009 32.6294C128.796 32.1668 129.42 31.5076 129.883 30.6518C130.369 29.7959 130.612 28.7782 130.612 27.5985Z" fill="white" fill-opacity="0.5"/>
<path d="M92.2304 36.7582C93.4795 37.3133 94.8905 37.5909 96.4633 37.5909C97.9899 37.5909 99.3199 37.348 100.453 36.8623C101.61 36.3534 102.489 35.6595 103.09 34.7806C103.715 33.9016 104.027 32.907 104.027 31.7967C104.004 30.5245 103.657 29.5068 102.986 28.7435C102.338 27.9571 101.564 27.3788 100.662 27.0087C99.7594 26.6386 98.6145 26.2801 97.2266 25.9331C95.8619 25.5862 94.8558 25.2508 94.2081 24.927C93.5604 24.58 93.2366 24.0827 93.2366 23.435C93.2366 22.8568 93.4679 22.4057 93.9305 22.0819C94.4163 21.7581 95.0986 21.5962 95.9776 21.5962C96.9259 21.5962 97.6777 21.8275 98.2328 22.2901C98.8111 22.7296 99.1349 23.331 99.2043 24.0943H103.854C103.715 22.1513 102.963 20.6131 101.598 19.4797C100.234 18.3232 98.4063 17.7449 96.1164 17.7449C94.5666 17.7449 93.2135 17.9994 92.057 18.5082C90.9236 19.0171 90.0446 19.711 89.4201 20.59C88.8187 21.4689 88.518 22.4404 88.518 23.5044C88.518 24.7997 88.8418 25.829 89.4895 26.5924C90.1603 27.3557 90.9467 27.9224 91.8488 28.2924C92.774 28.6625 93.9537 29.0211 95.3878 29.368C96.7756 29.7381 97.7818 30.0851 98.4063 30.4089C99.0539 30.7096 99.3778 31.1722 99.3778 31.7967C99.3778 32.375 99.1118 32.8492 98.5798 33.2192C98.0709 33.5893 97.3539 33.7744 96.4286 33.7744C95.4803 33.7744 94.6823 33.5315 94.0346 33.0458C93.4101 32.56 93.0516 31.9471 92.9591 31.2069H88.067C88.1363 32.3865 88.5296 33.4621 89.2466 34.4336C89.9868 35.4051 90.9814 36.18 92.2304 36.7582Z" fill="white" fill-opacity="0.5"/>
<path d="M80.8711 13.061H85.9714L82.2243 21.8043H78.8935L80.8711 13.061Z" fill="white" fill-opacity="0.5"/>
<path d="M72.4508 31.3456V22.0472H76.7531V18.0572H72.4508V13.3038H67.5587V18.0572H65.2688V22.0472H67.5587V31.3109C67.5587 35.2894 69.6058 37.2786 73.6999 37.2786H76.7531V33.1845H74.4979C73.7577 33.1845 73.2257 33.0457 72.9019 32.7682C72.6012 32.4675 72.4508 31.9933 72.4508 31.3456Z" fill="white" fill-opacity="0.5"/>
<path fill-rule="evenodd" clip-rule="evenodd" d="M63.5968 27.2516C63.5968 27.9455 63.5505 28.57 63.458 29.1251H49.4062C49.5219 30.513 50.0076 31.6001 50.8635 32.3865C51.7193 33.173 52.7717 33.5662 54.0208 33.5662C55.8249 33.5662 57.1087 32.7913 57.872 31.2416H63.1111C62.5559 33.092 61.4919 34.6186 59.919 35.8214C58.3462 37.0011 56.4148 37.5909 54.1249 37.5909C52.2744 37.5909 50.609 37.1861 49.1287 36.3766C47.6714 35.5439 46.5265 34.3758 45.6938 32.8723C44.8842 31.3688 44.4794 29.634 44.4794 27.6679C44.4794 25.6787 44.8842 23.9323 45.6938 22.4289C46.5034 20.9254 47.6367 19.7689 49.094 18.9593C50.5512 18.1497 52.2282 17.7449 54.1249 17.7449C55.9522 17.7449 57.5829 18.1382 59.017 18.9246C60.4742 19.711 61.596 20.8329 62.3824 22.2901C63.192 23.7242 63.5968 25.378 63.5968 27.2516ZM58.5659 25.8637C58.5428 24.6147 58.0917 23.6201 57.2128 22.8799C56.3338 22.1166 55.2582 21.7349 53.9861 21.7349C52.7833 21.7349 51.7655 22.105 50.9328 22.8452C50.1233 23.5623 49.626 24.5684 49.4409 25.8637H58.5659Z" fill="white" fill-opacity="0.5"/>
<path d="M42.9884 33.4274H35.0084V13.061H30.151V37.2786H42.9884V33.4274Z" fill="white" fill-opacity="0.5"/>
<path d="M225.061 31.3195H225.019C224.275 30.8245 223.445 30.4735 222.572 30.285C221.867 30.1103 221.126 30.1499 220.444 30.399C219.761 30.648 219.169 31.0951 218.742 31.6829C218.195 32.3909 217.785 33.1944 217.533 34.0524V34.1013C217.416 34.4979 217.425 34.9209 217.559 35.3121C217.693 35.7032 217.944 36.0433 218.279 36.2856C218.614 36.5278 219.016 36.6602 219.429 36.6646C219.843 36.669 220.247 36.5451 220.587 36.31C221.614 35.5226 222.859 35.0711 224.152 35.017C224.575 34.9878 224.977 34.8251 225.301 34.5524C225.625 34.2797 225.854 33.9111 225.955 33.4998C226.056 33.0884 226.024 32.6556 225.863 32.2637C225.703 31.8719 225.422 31.5412 225.061 31.3195Z" fill="white" fill-opacity="0.5"/>
<path d="M215.818 33.0286C216.308 32.5419 216.115 31.552 215.386 30.8177C214.658 30.0833 213.669 29.8826 213.179 30.3693C212.688 30.856 212.881 31.8459 213.61 32.5802C214.339 33.3146 215.327 33.5153 215.818 33.0286Z" fill="white" fill-opacity="0.5"/>
<path d="M227.095 27.6654C227.182 26.6345 226.693 25.7521 226.005 25.6945C225.316 25.6369 224.688 26.426 224.602 27.4569C224.516 28.4879 225.004 29.3703 225.693 29.4279C226.381 29.4854 227.009 28.6964 227.095 27.6654Z" fill="white" fill-opacity="0.5"/>
<path d="M218.372 26.5455C217.673 25.2245 216.4 24.5325 215.52 25.0008C214.639 25.4691 214.527 26.909 215.226 28.223C215.925 29.5371 217.197 30.229 218.078 29.7677C218.959 29.3064 219.064 27.8596 218.372 26.5455Z" fill="white" fill-opacity="0.5"/>
<path d="M221.902 28.3673C222.872 28.1588 223.404 26.8088 223.091 25.3521C222.778 23.8953 221.738 22.8833 220.768 23.0918C219.798 23.3002 219.266 24.6502 219.579 26.107C219.892 27.5638 220.932 28.5757 221.902 28.3673Z" fill="white" fill-opacity="0.5"/>
<path d="M208.726 20.905C208.482 20.0479 208.078 19.2442 207.538 18.5355C207.099 17.9621 206.512 17.5198 205.839 17.2564C205.164 17.0274 204.439 16.9887 203.743 17.1446C202.853 17.33 202.007 17.6809 201.247 18.179H201.205C200.835 18.3974 200.545 18.7294 200.378 19.1257C200.211 19.522 200.177 19.9615 200.28 20.3789C200.382 20.7964 200.617 21.1696 200.949 21.4432C201.281 21.7167 201.692 21.876 202.121 21.8975C202.761 21.9425 203.392 22.067 204.001 22.2679C204.599 22.5048 205.164 22.8147 205.686 23.1906C206.026 23.4256 206.43 23.5495 206.844 23.5451C207.257 23.5407 207.659 23.4083 207.994 23.1661C208.329 22.9239 208.58 22.5838 208.714 22.1926C208.848 21.8014 208.857 21.3784 208.74 20.9819L208.726 20.905Z" fill="white" fill-opacity="0.5"/>
<path d="M200.559 16.328C201.248 16.2704 201.736 15.388 201.65 14.357C201.563 13.3261 200.935 12.537 200.247 12.5946C199.558 12.6522 199.07 13.5346 199.156 14.5655C199.242 15.5965 199.87 16.3856 200.559 16.328Z" fill="white" fill-opacity="0.5"/>
<path d="M212.65 19.4721C213.378 18.7378 213.571 17.7479 213.081 17.2612C212.59 16.7745 211.602 16.9752 210.873 17.7095C210.145 18.4439 209.952 19.4337 210.442 19.9205C210.932 20.4072 211.921 20.2065 212.65 19.4721Z" fill="white" fill-opacity="0.5"/>
<path d="M206.677 12.9928C206.99 11.536 206.457 10.186 205.487 9.97758C204.518 9.76911 203.477 10.7811 203.164 12.2379C202.851 13.6947 203.384 15.0446 204.354 15.2531C205.324 15.4615 206.364 14.4496 206.677 12.9928Z" fill="white" fill-opacity="0.5"/>
<path d="M211.063 15.1132C211.759 13.796 211.613 12.3522 210.736 11.8885C209.859 11.4247 208.583 12.1166 207.887 13.4338C207.19 14.751 207.336 16.1948 208.213 16.6586C209.091 17.1223 210.366 16.4305 211.063 15.1132Z" fill="white" fill-opacity="0.5"/>
</svg>
