<svg width="245" height="46" viewBox="0 0 245 46" fill="none" xmlns="http://www.w3.org/2000/svg">
<path d="M2 38.0001C2 18.1178 18.1178 2 38.0001 2H221.557C233.045 2 242.357 11.3125 242.357 22.8001C242.357 34.2876 233.045 43.6002 221.557 43.6002H7.60002C4.50721 43.6002 2 41.0929 2 38.0001Z" stroke="#3A4646" stroke-width="4"/>
<path d="M189.622 15.97L177.721 44.2817H172.551L176.715 34.7057L169.012 15.97H174.46L179.421 29.3972L184.452 15.97H189.622Z" fill="#3A4646"/>
<path d="M146.816 25.5113C146.816 23.5683 147.197 21.8451 147.961 20.3416C148.747 18.8382 149.799 17.6816 151.118 16.8721C152.46 16.0625 153.951 15.6577 155.594 15.6577C157.028 15.6577 158.277 15.9468 159.341 16.5251C160.428 17.1034 161.295 17.832 161.943 18.7109V15.97H166.835V35.1914H161.943V32.3811C161.318 33.2832 160.451 34.0349 159.341 34.6363C158.254 35.2146 156.993 35.5037 155.559 35.5037C153.94 35.5037 152.46 35.0873 151.118 34.2546C149.799 33.4219 148.747 32.2539 147.961 30.7504C147.197 29.2238 146.816 27.4774 146.816 25.5113ZM161.943 25.5807C161.943 24.401 161.712 23.3949 161.249 22.5622C160.786 21.7063 160.162 21.0587 159.376 20.6192C158.589 20.1566 157.745 19.9253 156.843 19.9253C155.941 19.9253 155.108 20.145 154.345 20.5845C153.581 21.024 152.957 21.6716 152.471 22.5275C152.008 23.3602 151.777 24.3548 151.777 25.5113C151.777 26.6678 152.008 27.6856 152.471 28.5645C152.957 29.4204 153.581 30.0796 154.345 30.5422C155.131 31.0048 155.964 31.2361 156.843 31.2361C157.745 31.2361 158.589 31.0164 159.376 30.5769C160.162 30.1143 160.786 29.4666 161.249 28.6339C161.712 27.7781 161.943 26.7604 161.943 25.5807Z" fill="#3A4646"/>
<path d="M143.612 9.51654V35.1914H138.755V9.51654H143.612Z" fill="#3A4646"/>
<path d="M120.444 18.7456C121.069 17.8667 121.925 17.1381 123.012 16.5598C124.122 15.9584 125.383 15.6577 126.794 15.6577C128.436 15.6577 129.916 16.0625 131.235 16.8721C132.576 17.6816 133.629 18.8382 134.392 20.3416C135.178 21.822 135.572 23.5452 135.572 25.5113C135.572 27.4774 135.178 29.2238 134.392 30.7504C133.629 32.2539 132.576 33.4219 131.235 34.2546C129.916 35.0873 128.436 35.5037 126.794 35.5037C125.383 35.5037 124.134 35.2146 123.047 34.6363C121.983 34.058 121.115 33.3294 120.444 32.4505V44.3511H115.587V15.97H120.444V18.7456ZM130.61 25.5113C130.61 24.3548 130.367 23.3602 129.882 22.5275C129.419 21.6716 128.794 21.024 128.008 20.5845C127.245 20.145 126.412 19.9253 125.51 19.9253C124.631 19.9253 123.798 20.1566 123.012 20.6192C122.249 21.0587 121.624 21.7063 121.138 22.5622C120.676 23.418 120.444 24.4242 120.444 25.5807C120.444 26.7372 120.676 27.7434 121.138 28.5992C121.624 29.4551 122.249 30.1143 123.012 30.5769C123.798 31.0164 124.631 31.2361 125.51 31.2361C126.412 31.2361 127.245 31.0048 128.008 30.5422C128.794 30.0796 129.419 29.4204 129.882 28.5645C130.367 27.7087 130.61 26.691 130.61 25.5113Z" fill="#3A4646"/>
<path d="M96.4629 35.5037C94.89 35.5037 93.4791 35.2261 92.23 34.671C90.981 34.0927 89.9864 33.3179 89.2462 32.3464C88.5291 31.3749 88.1359 30.2993 88.0665 29.1197H92.9586C93.0512 29.8598 93.4097 30.4728 94.0342 30.9585C94.6819 31.4443 95.4799 31.6872 96.4282 31.6872C97.3534 31.6872 98.0705 31.5021 98.5793 31.132C99.1113 30.7619 99.3773 30.2878 99.3773 29.7095C99.3773 29.085 99.0535 28.6224 98.4059 28.3217C97.7813 27.9978 96.7752 27.6509 95.3873 27.2808C93.9532 26.9338 92.7736 26.5753 91.8484 26.2052C90.9463 25.8351 90.1598 25.2684 89.4891 24.5051C88.8414 23.7418 88.5176 22.7125 88.5176 21.4172C88.5176 20.3532 88.8183 19.3817 89.4197 18.5028C90.0442 17.6238 90.9231 16.9299 92.0565 16.421C93.2131 15.9122 94.5662 15.6577 96.1159 15.6577C98.4059 15.6577 100.233 16.236 101.598 17.3925C102.963 18.5259 103.714 20.0641 103.853 22.007H99.2039C99.1345 21.2437 98.8107 20.6423 98.2324 20.2029C97.6773 19.7402 96.9255 19.5089 95.9772 19.5089C95.0982 19.5089 94.4159 19.6709 93.9301 19.9947C93.4675 20.3185 93.2362 20.7696 93.2362 21.3478C93.2362 21.9955 93.56 22.4928 94.2077 22.8397C94.8553 23.1636 95.8615 23.499 97.2262 23.8459C98.614 24.1929 99.759 24.5514 100.661 24.9215C101.563 25.2916 102.338 25.8698 102.986 26.6563C103.656 27.4196 104.003 28.4373 104.027 29.7095C104.027 30.8198 103.714 31.8144 103.09 32.6933C102.488 33.5723 101.609 34.2662 100.453 34.7751C99.3195 35.2608 97.9895 35.5037 96.4629 35.5037Z" fill="#3A4646"/>
<path d="M80.8707 10.9738H85.971L82.2239 19.7171H78.8931L80.8707 10.9738Z" fill="#3A4646"/>
<path d="M72.4511 19.9599V29.2584C72.4511 29.9061 72.6014 30.3802 72.9021 30.6809C73.226 30.9585 73.758 31.0973 74.4981 31.0973H76.7534V35.1914H73.7001C69.606 35.1914 67.559 33.2022 67.559 29.2237V19.9599H65.2691V15.9699H67.559V11.2166H72.4511V15.9699H76.7534V19.9599H72.4511Z" fill="#3A4646"/>
<path d="M63.5964 25.1644C63.5964 25.8583 63.5501 26.4828 63.4576 27.0379H49.4058C49.5215 28.4258 50.0072 29.5129 50.863 30.2993C51.7189 31.0858 52.7713 31.479 54.0204 31.479C55.8245 31.479 57.1083 30.7041 57.8716 29.1544H63.1107C62.5555 31.0048 61.4915 32.5314 59.9186 33.7342C58.3458 34.9139 56.4144 35.5037 54.1244 35.5037C52.274 35.5037 50.6086 35.0989 49.1283 34.2893C47.671 33.4566 46.5261 32.2886 45.6934 30.7851C44.8838 29.2816 44.479 27.5468 44.479 25.5807C44.479 23.5915 44.8838 21.8451 45.6934 20.3416C46.5029 18.8382 47.6363 17.6816 49.0936 16.8721C50.5508 16.0625 52.2277 15.6577 54.1244 15.6577C55.9518 15.6577 57.5825 16.0509 59.0165 16.8374C60.4738 17.6238 61.5956 18.7456 62.382 20.2029C63.1916 21.637 63.5964 23.2908 63.5964 25.1644ZM58.5655 23.7765C58.5424 22.5275 58.0913 21.5329 57.2124 20.7927C56.3334 20.0294 55.2578 19.6477 53.9857 19.6477C52.7829 19.6477 51.7651 20.0178 50.9324 20.758C50.1229 21.475 49.6256 22.4812 49.4405 23.7765H58.5655Z" fill="#3A4646"/>
<path d="M35.0078 31.3402H42.9878V35.1915H30.1504V10.9738H35.0078V31.3402Z" fill="#3A4646"/>
<path fill-rule="evenodd" clip-rule="evenodd" d="M209.416 26.75C211.23 27.7969 212.646 28.7451 211.873 30.0838C211.099 31.4245 208.997 31.6631 207.184 30.6162C205.371 29.5693 204.525 27.6292 205.299 26.2884C206.072 24.9496 207.603 25.7031 209.416 26.75Z" fill="#3A4646"/>
<path fill-rule="evenodd" clip-rule="evenodd" d="M199.201 14.2387C200.831 11.4154 204.447 10.4459 207.271 12.076C210.093 13.7058 211.064 17.3232 209.434 20.1466C207.804 22.9694 204.185 23.9395 201.362 22.3097C198.539 20.6797 197.571 17.0616 199.201 14.2387ZM205.436 20.7334C205.755 20.1816 205.565 19.475 205.012 19.1558C204.46 18.8366 203.751 19.025 203.433 19.5769C203.114 20.1298 203.304 20.8383 203.857 21.1575C204.41 21.4767 205.117 21.2863 205.436 20.7334ZM205.802 15.6121C206.34 14.6804 206.019 13.489 205.089 12.9519C204.158 12.4146 202.966 12.7323 202.428 13.664C201.89 14.5957 202.21 15.7877 203.141 16.3251C204.071 16.8621 205.264 16.5439 205.802 15.6121Z" fill="#3A4646"/>
<path fill-rule="evenodd" clip-rule="evenodd" d="M215.011 23.3678C216.641 20.5444 220.258 19.5753 223.081 21.205C225.905 22.8357 226.875 26.4528 225.245 29.2762C223.615 32.099 219.997 33.0694 217.172 31.4388C214.35 29.809 213.381 26.1906 215.011 23.3678ZM221.247 29.863C221.566 29.3111 221.376 28.604 220.823 28.2848C220.271 27.9661 219.562 28.1543 219.244 28.7061C218.924 29.2591 219.115 29.9678 219.667 30.2864C220.22 30.6057 220.928 30.4159 221.247 29.863ZM221.614 24.7423C222.152 23.8105 221.83 22.6182 220.899 22.0809C219.967 21.5429 218.777 21.8622 218.239 22.7939C217.701 23.7256 218.02 24.9161 218.951 25.454C219.882 25.9914 221.076 25.674 221.614 24.7423Z" fill="#3A4646"/>
<path fill-rule="evenodd" clip-rule="evenodd" d="M197.067 25.4615C197.035 25.1209 197.286 24.82 197.627 24.788C199.319 24.634 201.108 24.7116 202.778 25.2169C203.104 25.3165 203.29 25.6624 203.191 25.9901C203.092 26.3161 202.746 26.5016 202.418 26.4035C200.944 25.9556 199.324 25.8767 197.738 26.023C197.399 26.0541 197.097 25.8018 197.067 25.4615Z" fill="#3A4646"/>
<path fill-rule="evenodd" clip-rule="evenodd" d="M196.891 28.5596C196.83 28.2244 197.052 27.8995 197.388 27.8381C199.257 27.4916 200.595 27.4037 202.479 27.4099C202.821 27.4127 203.099 27.691 203.098 28.0318C203.096 28.3738 202.818 28.6503 202.475 28.6496C200.651 28.6419 199.393 28.7268 197.612 29.056C197.276 29.1179 196.953 28.8959 196.891 28.5598L196.891 28.5596Z" fill="#3A4646"/>
<path fill-rule="evenodd" clip-rule="evenodd" d="M216.251 36.7123C215.585 35.2654 214.707 33.9025 213.581 32.8493C213.332 32.614 213.319 32.2218 213.553 31.9736C213.787 31.7239 214.179 31.7114 214.43 31.9446C215.702 33.1387 216.664 34.6488 217.377 36.1918C217.519 36.5023 217.385 36.8706 217.074 37.0135C216.763 37.1566 216.395 37.0217 216.251 36.7123Z" fill="#3A4646"/>
<path fill-rule="evenodd" clip-rule="evenodd" d="M213.687 38.3372C213.081 36.6302 212.526 35.4984 211.608 33.9233C211.436 33.6264 211.537 33.2479 211.833 33.0752C212.127 32.9038 212.506 33.0047 212.679 33.299C213.626 34.928 214.219 36.1301 214.855 37.923C214.969 38.2446 214.801 38.6005 214.477 38.7132C214.156 38.8282 213.802 38.6606 213.687 38.3372Z" fill="#3A4646"/>
<path fill-rule="evenodd" clip-rule="evenodd" d="M219.475 17.8399C219.506 16.949 219.684 15.9896 220.032 15.1338C220.16 14.8168 220.52 14.6639 220.839 14.7921C221.156 14.9211 221.308 15.2819 221.179 15.5989C220.893 16.3026 220.74 17.1134 220.714 17.8809C220.701 18.224 220.415 18.4912 220.073 18.4797C219.731 18.4687 219.463 18.1822 219.475 17.8399Z" fill="#3A4646"/>
<path fill-rule="evenodd" clip-rule="evenodd" d="M221.12 18.2011C221.168 17.3133 221.336 16.4443 221.533 15.6662C221.616 15.3354 221.955 15.134 222.287 15.2186C222.616 15.3025 222.817 15.64 222.735 15.9722C222.547 16.7014 222.4 17.4879 222.355 18.2696C222.337 18.6112 222.045 18.8734 221.704 18.854C221.361 18.835 221.099 18.5426 221.12 18.2011Z" fill="#3A4646"/>
<path fill-rule="evenodd" clip-rule="evenodd" d="M211.065 13.2782C210.885 12.9882 210.973 12.6066 211.263 12.4235C211.914 12.0182 212.54 11.4792 213.009 10.8789C213.219 10.6094 213.609 10.5616 213.878 10.7724C214.147 10.9835 214.196 11.3728 213.985 11.6414C213.415 12.3695 212.678 13.0042 211.918 13.4764C211.629 13.6582 211.246 13.5687 211.065 13.2782Z" fill="#3A4646"/>
<path fill-rule="evenodd" clip-rule="evenodd" d="M209.927 12.0547C209.739 11.7674 209.82 11.3835 210.106 11.1978C210.763 10.7695 211.368 10.2473 211.911 9.72053C212.155 9.48331 212.547 9.48909 212.786 9.73491C213.024 9.97962 213.019 10.3718 212.773 10.6105C212.196 11.1678 211.529 11.7482 210.784 12.2334C210.497 12.4212 210.113 12.341 209.927 12.0547Z" fill="#3A4646"/>
</svg>
