<svg width="245" height="47" viewBox="0 0 245 47" fill="none" xmlns="http://www.w3.org/2000/svg">
<path d="M244.357 23.4002C244.357 10.8081 234.149 0.600159 221.557 0.600159H38.0001C17.0132 0.600159 0 17.6134 0 38.6003C0 42.7977 3.40265 46.2003 7.60002 46.2003H221.557C234.149 46.2003 244.357 35.9924 244.357 23.4002Z" fill="#3A4646"/>
<path d="M143.613 37.2786V11.6037H138.755V37.2786H143.613Z" fill="white" fill-opacity="0.8"/>
<path fill-rule="evenodd" clip-rule="evenodd" d="M146.816 27.5985C146.816 25.6555 147.198 23.9323 147.961 22.4288C148.748 20.9253 149.8 19.7688 151.119 18.9592C152.46 18.1497 153.952 17.7449 155.594 17.7449C157.029 17.7449 158.278 18.034 159.342 18.6123C160.429 19.1905 161.296 19.9191 161.944 20.7981V18.0571H166.836V37.2786H161.944V34.4682C161.319 35.3703 160.452 36.1221 159.342 36.7235C158.254 37.3017 156.994 37.5909 155.56 37.5909C153.941 37.5909 152.46 37.1745 151.119 36.3418C149.8 35.5091 148.748 34.341 147.961 32.8375C147.198 31.3109 146.816 29.5646 146.816 27.5985ZM161.944 27.6679C161.944 26.4882 161.712 25.482 161.25 24.6493C160.787 23.7935 160.163 23.1458 159.376 22.7064C158.59 22.2438 157.746 22.0125 156.844 22.0125C155.941 22.0125 155.109 22.2322 154.345 22.6717C153.582 23.1112 152.958 23.7588 152.472 24.6146C152.009 25.4473 151.778 26.4419 151.778 27.5985C151.778 28.755 152.009 29.7727 152.472 30.6517C152.958 31.5075 153.582 32.1667 154.345 32.6294C155.132 33.092 155.965 33.3233 156.844 33.3233C157.746 33.3233 158.59 33.1035 159.376 32.6641C160.163 32.2014 160.787 31.5538 161.25 30.7211C161.712 29.8653 161.944 28.8475 161.944 27.6679Z" fill="white" fill-opacity="0.8"/>
<path d="M189.622 18.0571L177.721 46.3689H172.551L176.715 36.7928L169.012 18.0571H174.46L179.421 31.4844L184.452 18.0571H189.622Z" fill="white" fill-opacity="0.8"/>
<path fill-rule="evenodd" clip-rule="evenodd" d="M120.446 20.8328C121.07 19.9538 121.926 19.2252 123.013 18.647C124.123 18.0456 125.384 17.7449 126.795 17.7449C128.437 17.7449 129.918 18.1497 131.236 18.9592C132.578 19.7688 133.63 20.9253 134.393 22.4288C135.18 23.9092 135.573 25.6324 135.573 27.5985C135.573 29.5646 135.18 31.3109 134.393 32.8375C133.63 34.341 132.578 35.5091 131.236 36.3418C129.918 37.1745 128.437 37.5909 126.795 37.5909C125.384 37.5909 124.135 37.3017 123.048 36.7235C121.984 36.1452 121.117 35.4166 120.446 34.5376V46.4383H115.588V18.0571H120.446V20.8328ZM130.612 27.5985C130.612 26.4419 130.369 25.4473 129.883 24.6146C129.42 23.7588 128.796 23.1112 128.009 22.6717C127.246 22.2322 126.413 22.0125 125.511 22.0125C124.632 22.0125 123.8 22.2438 123.013 22.7064C122.25 23.1458 121.625 23.7935 121.14 24.6493C120.677 25.5052 120.446 26.5113 120.446 27.6679C120.446 28.8244 120.677 29.8306 121.14 30.6864C121.625 31.5422 122.25 32.2014 123.013 32.6641C123.8 33.1035 124.632 33.3233 125.511 33.3233C126.413 33.3233 127.246 33.092 128.009 32.6294C128.796 32.1667 129.42 31.5075 129.883 30.6517C130.369 29.7959 130.612 28.7781 130.612 27.5985Z" fill="white" fill-opacity="0.8"/>
<path d="M92.2304 36.7582C93.4795 37.3133 94.8905 37.5909 96.4633 37.5909C97.9899 37.5909 99.3199 37.348 100.453 36.8622C101.61 36.3534 102.489 35.6595 103.09 34.7805C103.715 33.9015 104.027 32.9069 104.027 31.7967C104.004 30.5245 103.657 29.5067 102.986 28.7434C102.338 27.957 101.564 27.3787 100.662 27.0086C99.7594 26.6386 98.6145 26.28 97.2266 25.9331C95.8619 25.5861 94.8558 25.2507 94.2081 24.9269C93.5604 24.5799 93.2366 24.0826 93.2366 23.435C93.2366 22.8567 93.4679 22.4057 93.9305 22.0818C94.4163 21.758 95.0986 21.5961 95.9776 21.5961C96.9259 21.5961 97.6777 21.8274 98.2328 22.29C98.8111 22.7295 99.1349 23.3309 99.2043 24.0942H103.854C103.715 22.1512 102.963 20.6131 101.598 19.4797C100.234 18.3231 98.4063 17.7449 96.1164 17.7449C94.5666 17.7449 93.2135 17.9993 92.057 18.5082C90.9236 19.0171 90.0446 19.711 89.4201 20.5899C88.8187 21.4689 88.518 22.4404 88.518 23.5044C88.518 24.7997 88.8418 25.829 89.4895 26.5923C90.1603 27.3556 90.9467 27.9223 91.8488 28.2924C92.774 28.6625 93.9537 29.021 95.3878 29.368C96.7756 29.738 97.7818 30.085 98.4063 30.4088C99.0539 30.7095 99.3778 31.1721 99.3778 31.7967C99.3778 32.3749 99.1118 32.8491 98.5798 33.2192C98.0709 33.5893 97.3539 33.7743 96.4286 33.7743C95.4803 33.7743 94.6823 33.5314 94.0346 33.0457C93.4101 32.56 93.0516 31.947 92.9591 31.2068H88.067C88.1363 32.3865 88.5296 33.4621 89.2466 34.4335C89.9868 35.405 90.9814 36.1799 92.2304 36.7582Z" fill="white" fill-opacity="0.8"/>
<path d="M80.8711 13.0609H85.9714L82.2243 21.8042H78.8935L80.8711 13.0609Z" fill="white" fill-opacity="0.8"/>
<path d="M72.4508 31.3456V22.0471H76.7531V18.0571H72.4508V13.3038H67.5587V18.0571H65.2688V22.0471H67.5587V31.3109C67.5587 35.2893 69.6058 37.2785 73.6999 37.2785H76.7531V33.1844H74.4979C73.7577 33.1844 73.2257 33.0457 72.9019 32.7681C72.6012 32.4674 72.4508 31.9932 72.4508 31.3456Z" fill="white" fill-opacity="0.8"/>
<path fill-rule="evenodd" clip-rule="evenodd" d="M63.5968 27.2515C63.5968 27.9454 63.5505 28.57 63.458 29.1251H49.4062C49.5219 30.5129 50.0076 31.6 50.8635 32.3865C51.7193 33.1729 52.7717 33.5661 54.0208 33.5661C55.8249 33.5661 57.1087 32.7913 57.872 31.2415H63.1111C62.5559 33.092 61.4919 34.6186 59.919 35.8214C58.3462 37.001 56.4148 37.5909 54.1249 37.5909C52.2744 37.5909 50.609 37.1861 49.1287 36.3765C47.6714 35.5438 46.5265 34.3757 45.6938 32.8722C44.8842 31.3687 44.4794 29.634 44.4794 27.6679C44.4794 25.6786 44.8842 23.9323 45.6938 22.4288C46.5034 20.9253 47.6367 19.7688 49.094 18.9592C50.5512 18.1497 52.2282 17.7449 54.1249 17.7449C55.9522 17.7449 57.5829 18.1381 59.017 18.9245C60.4742 19.711 61.596 20.8328 62.3824 22.29C63.192 23.7241 63.5968 25.3779 63.5968 27.2515ZM58.5659 25.8637C58.5428 24.6146 58.0917 23.62 57.2128 22.8798C56.3338 22.1165 55.2582 21.7349 53.9861 21.7349C52.7833 21.7349 51.7655 22.105 50.9328 22.8452C50.1233 23.5622 49.626 24.5684 49.4409 25.8637H58.5659Z" fill="white" fill-opacity="0.8"/>
<path d="M42.9884 33.4273H35.0084V13.0609H30.151V37.2786H42.9884V33.4273Z" fill="white" fill-opacity="0.8"/>
<path d="M225.061 31.3195H225.019C224.275 30.8245 223.445 30.4736 222.572 30.2851C221.867 30.1103 221.126 30.15 220.444 30.399C219.761 30.6481 219.169 31.0952 218.742 31.683C218.195 32.3909 217.785 33.1944 217.533 34.0525V34.1014C217.416 34.498 217.425 34.9209 217.559 35.3121C217.693 35.7033 217.944 36.0434 218.279 36.2856C218.614 36.5279 219.016 36.6603 219.429 36.6647C219.843 36.669 220.247 36.5452 220.587 36.3101C221.614 35.5227 222.859 35.0711 224.152 35.017C224.575 34.9878 224.977 34.8251 225.301 34.5525C225.625 34.2798 225.854 33.9112 225.955 33.4998C226.056 33.0885 226.024 32.6557 225.863 32.2638C225.703 31.8719 225.422 31.5413 225.061 31.3195Z" fill="white" fill-opacity="0.8"/>
<path d="M215.818 33.0287C216.308 32.542 216.115 31.5521 215.386 30.8178C214.658 30.0835 213.669 29.8827 213.179 30.3694C212.688 30.8562 212.881 31.846 213.61 32.5804C214.339 33.3147 215.327 33.5154 215.818 33.0287Z" fill="white" fill-opacity="0.8"/>
<path d="M227.095 27.6654C227.182 26.6345 226.693 25.7521 226.005 25.6945C225.316 25.6369 224.688 26.426 224.602 27.4569C224.516 28.4879 225.004 29.3703 225.693 29.4279C226.381 29.4854 227.009 28.6964 227.095 27.6654Z" fill="white" fill-opacity="0.8"/>
<path d="M218.372 26.5457C217.673 25.2246 216.4 24.5326 215.52 25.001C214.639 25.4693 214.527 26.9091 215.226 28.2232C215.925 29.5372 217.197 30.2292 218.078 29.7679C218.959 29.3065 219.064 27.8597 218.372 26.5457Z" fill="white" fill-opacity="0.8"/>
<path d="M221.902 28.3673C222.872 28.1589 223.404 26.8089 223.091 25.3521C222.778 23.8953 221.738 22.8834 220.768 23.0918C219.798 23.3003 219.266 24.6503 219.579 26.107C219.892 27.5638 220.932 28.5758 221.902 28.3673Z" fill="white" fill-opacity="0.8"/>
<path d="M208.726 20.9051C208.482 20.048 208.078 19.2443 207.538 18.5356C207.099 17.9622 206.512 17.5199 205.839 17.2565C205.164 17.0275 204.439 16.9888 203.743 17.1447C202.853 17.3301 202.007 17.681 201.247 18.1792H201.205C200.835 18.3975 200.545 18.7295 200.378 19.1258C200.211 19.5221 200.177 19.9616 200.28 20.379C200.382 20.7965 200.617 21.1697 200.949 21.4433C201.281 21.7168 201.692 21.8762 202.121 21.8976C202.761 21.9426 203.392 22.0671 204.001 22.2681C204.599 22.5049 205.164 22.8148 205.686 23.1907C206.026 23.4258 206.43 23.5496 206.844 23.5452C207.257 23.5409 207.659 23.4084 207.994 23.1662C208.329 22.924 208.58 22.5839 208.714 22.1927C208.848 21.8015 208.857 21.3785 208.74 20.982L208.726 20.9051Z" fill="white" fill-opacity="0.8"/>
<path d="M200.559 16.328C201.248 16.2704 201.736 15.388 201.65 14.357C201.563 13.3261 200.935 12.537 200.247 12.5946C199.558 12.6522 199.07 13.5346 199.156 14.5655C199.242 15.5965 199.87 16.3856 200.559 16.328Z" fill="white" fill-opacity="0.8"/>
<path d="M212.65 19.4722C213.378 18.7378 213.571 17.748 213.081 17.2613C212.59 16.7745 211.602 16.9753 210.873 17.7096C210.145 18.4439 209.952 19.4338 210.442 19.9205C210.932 20.4073 211.921 20.2065 212.65 19.4722Z" fill="white" fill-opacity="0.8"/>
<path d="M206.677 12.9928C206.99 11.536 206.457 10.186 205.487 9.97758C204.518 9.76911 203.477 10.7811 203.164 12.2379C202.851 13.6947 203.384 15.0446 204.354 15.2531C205.324 15.4615 206.364 14.4496 206.677 12.9928Z" fill="white" fill-opacity="0.8"/>
<path d="M211.063 15.1133C211.759 13.7961 211.613 12.3523 210.736 11.8885C209.859 11.4248 208.583 12.1166 207.887 13.4339C207.19 14.7511 207.336 16.1949 208.213 16.6586C209.091 17.1224 210.366 16.4305 211.063 15.1133Z" fill="white" fill-opacity="0.8"/>
</svg>
