<svg width="32" height="32" viewBox="0 0 32 32" fill="none" xmlns="http://www.w3.org/2000/svg">
<g clip-path="url(#clip0_256_389)">
<path d="M0.190105 19.0521C1.35449 26.3224 7.83391 32.4361 14.8663 31.9756C21.8785 31.5162 28.6029 28.652 31.1081 21.2981C33.3739 14.6474 31.2183 6.91546 25.8257 2.66026C20.8894 -1.23573 12.5825 -0.582083 7.56642 2.86872C2.46605 6.37723 -0.847276 12.5804 0.190105 19.0521Z" fill="#E6A66B"/>
<path d="M17.0127 10.2897C17.0008 10.1307 16.9949 9.97156 16.9996 9.81246C17.002 9.73575 17.0056 9.65905 17.0115 9.58234C17.0115 9.58234 17.0246 9.46018 17.0162 9.52694C17.0091 9.58234 17.0293 9.45023 17.0317 9.43745C17.0578 9.2954 17.0863 9.15477 17.1254 9.01698C17.1349 8.98573 17.1978 8.79538 17.1634 8.88914C17.1907 8.81385 17.2228 8.73998 17.2548 8.66896C17.4637 8.21014 17.7676 7.83796 18.1189 7.57091C18.2186 7.49562 18.3219 7.4246 18.4263 7.36068C18.4798 7.32801 18.5332 7.29817 18.5866 7.26976C18.6495 7.23709 18.5937 7.26692 18.5818 7.27261C18.6186 7.25414 18.6554 7.23709 18.6934 7.22147C18.9355 7.11777 19.1872 7.0368 19.4424 6.99561C19.3498 7.01123 19.4946 6.99135 19.5219 6.9885C19.5813 6.98282 19.6406 6.97856 19.6999 6.97572C19.8281 6.97146 19.9575 6.9743 20.0857 6.98566C20.2531 7.00129 20.1735 6.9885 20.3385 7.02828C20.4643 7.05811 20.5878 7.09788 20.71 7.14476C21.1516 7.31948 21.6121 7.72432 21.8911 8.2144C22.0715 8.53117 22.4121 8.67322 22.7029 8.46867C22.9653 8.28542 23.0982 7.81524 22.9154 7.49704C23 6.09743 20.862 4.89007 19.5219 5.00797C18.2435 5.11877 16.5284 6.26263 15.8257 7.57091C15.4233 8.31951 14.6147 9.91053 15.2136 10.4553C15.2409 10.8374 16.0786 11 16.4192 11C16.7183 11 17.04 10.6747 17.0127 10.2897Z" fill="#3A4646"/>
<path d="M13.32 22.6619C14.7952 24.8713 18.8562 25.4145 20.5 24C22.1996 22.5375 24.1294 18.0711 22.9919 15.4194C22.5768 14.4519 20.5826 15.5279 21 16.5C21.7904 18.3432 20.4133 20.9499 19.2024 21.9641C17.9908 22.9802 15.578 22.6147 14.5 21C13.9393 20.1582 12.7578 21.8188 13.32 22.6619Z" fill="#3A4646"/>
<path d="M9.69662 17.8973C12.4211 16.6163 10.3855 10.0347 8.04734 11.1204C5.80414 12.1626 7.54615 18.907 9.69662 17.8973Z" fill="#3A4646"/>
</g>
<defs>
<clipPath id="clip0_256_389">
<rect width="32" height="32" fill="white"/>
</clipPath>
</defs>
</svg>
