<svg width="154" height="169" viewBox="0 0 154 169" fill="none" xmlns="http://www.w3.org/2000/svg">
<path d="M71.1156 104.812C71.1407 104.999 71.1674 105.179 71.1964 105.351L71.1979 105.36L71.1993 105.369C74.1902 125.236 83.4178 146.619 98.1792 163.291C98.611 163.769 98.8618 164.38 98.8244 165.017C98.7859 165.671 98.4453 166.263 97.8708 166.641C96.7268 167.393 95.241 166.954 94.4356 166.067L94.4308 166.061L94.4308 166.061C78.9505 148.754 69.3132 126.411 66.1858 105.673C66.0203 104.616 65.8999 103.399 65.7962 102.19C64.2303 101.039 62.6601 99.4747 61.0386 97.6042L61.031 97.5955L61.0311 97.5954C53.9989 89.292 50.2055 75.4008 48.7878 60.6805L48.7875 60.6777C47.7588 49.6795 48.0196 38.0986 49.222 27.7787C50.4224 17.4764 52.5699 8.35547 55.3569 2.3117L71.1156 104.812ZM71.1156 104.812C72.4756 105.164 73.7646 105.242 74.9534 105.128L74.9663 105.126L74.979 105.125C77.4608 104.822 79.6014 103.576 81.2882 101.793L81.2909 101.79C83.621 99.3059 85.0949 95.8515 85.6729 92.4013L85.673 92.4013L85.6748 92.3896C86.0875 89.7345 85.9396 86.9749 85.0688 84.8455C84.3821 83.0583 83.2117 81.6805 81.6741 80.8225L81.671 80.8207C80.0134 79.9036 77.9051 79.6379 75.3931 80.4138C71.0761 81.6605 68.5072 84.8885 67.1022 88.8595L67.1017 88.861C66.3297 91.054 65.9319 93.4656 65.7634 95.8634C65.4779 95.5591 65.1877 95.2384 64.8924 94.9009C58.6082 87.3553 55.1742 74.6052 53.837 60.617C52.8342 50.0118 53.0725 38.7998 54.2217 28.8112C55.3731 18.8047 57.43 10.103 60.0216 4.48239L60.0217 4.48221C60.3089 3.85893 60.2212 3.17814 59.9763 2.64535C59.7254 2.09943 59.2701 1.60832 58.6538 1.3198C58.0373 1.03119 57.3684 0.996255 56.7883 1.15612C56.2217 1.31222 55.6451 1.68643 55.357 2.31148L71.1156 104.812ZM73.9096 100.488C72.978 100.56 71.9169 100.374 70.7158 99.8064C70.6358 96.7556 70.964 93.3813 71.9189 90.6581C72.892 87.889 74.5185 85.7392 77.2834 84.8606C78.3126 84.6126 78.97 84.6345 79.4127 84.8188C79.8399 85.1116 80.1731 85.5779 80.4337 86.2771C80.9029 87.6217 80.9527 89.4645 80.654 91.3616C80.1985 94.0813 79.0566 96.7529 77.3645 98.5459C76.3644 99.5841 75.1961 100.319 73.9096 100.488Z" fill="#68B2F5" stroke="#68B2F5" stroke-width="2"/>
<path d="M73.7383 149.306L73.7304 149.303L73.7224 149.3C73.1088 149.101 72.4603 149.11 71.8998 149.324C71.3436 149.535 70.8189 149.978 70.6251 150.658C70.2236 151.997 71.1217 153.295 72.3511 153.701C80.309 156.488 88.51 160.806 94.5439 166.417L94.563 166.435L94.583 166.452C95.4817 167.204 96.9864 167.479 98.0155 166.639L98.0383 166.62L98.0599 166.6C98.5691 166.132 98.834 165.496 98.7995 164.836C98.7657 164.191 98.4514 163.6 97.9493 163.171C91.2808 157.031 82.3686 152.266 73.7383 149.306Z" fill="#68B2F5" stroke="#68B2F5" stroke-width="2"/>
<path d="M97.4266 166.837C98.7891 166.363 99.2653 164.814 98.5309 163.629C94.6382 156.96 95.4011 149.032 97.381 142.36L97.3835 142.352L97.3858 142.343C97.5672 141.691 97.3883 141.037 97.0724 140.542C96.7497 140.037 96.2366 139.614 95.5946 139.405L95.5945 139.405C94.409 139.021 92.888 139.431 92.4568 140.852L92.4567 140.852L92.4545 140.86C90.2683 148.278 89.4611 157.635 94.1393 165.653L94.1482 165.669L94.1577 165.684C94.8305 166.749 96.2586 167.244 97.4266 166.837ZM97.4266 166.837L97.0982 165.893L97.4277 166.837C97.4273 166.837 97.427 166.837 97.4266 166.837Z" fill="#68B2F5" stroke="#68B2F5" stroke-width="2"/>
</svg>
