<svg width="1004" height="1094" viewBox="0 0 1004 1094" fill="none" xmlns="http://www.w3.org/2000/svg">
<path d="M517.397 776.576C516.374 771.9 515.059 765.687 513.609 758.139C512.13 750.484 510.723 741.195 509.907 730.78C508.403 709.873 508.757 683.918 516.62 654.452C520.618 639.741 526.459 624.167 535.443 608.484C544.424 592.854 556.443 577.056 571.517 563.341C578.991 556.496 587.056 550.164 595.392 544.514C603.75 538.9 612.426 533.989 621.041 529.736C638.329 521.269 655.211 515.754 670.333 511.824C687.898 507.265 704.756 504.399 721.063 501.965C737.371 499.531 753.16 497.583 768.597 495.226C799.405 490.579 829.114 484.109 855.299 470.747C881.796 457.668 905.053 437.698 923.101 415.058C941.131 392.328 953.874 366.975 961.463 341.848C969.031 316.684 971.472 291.558 968.206 268.607C967.361 262.881 966.287 257.242 964.689 251.846C963.929 249.124 963.143 246.418 962.124 243.852L960.701 239.916L958.891 236.038C956.448 230.878 954.326 225.549 951.215 220.743L946.915 213.323C945.442 210.882 943.649 208.611 942.036 206.229C928.844 187.404 911.969 170.775 892.84 155.904C873.725 140.999 852.238 127.949 829.785 115.754C815.826 108.05 795.984 98.6032 780.717 89.8998C765.449 81.1965 754.757 73.2363 759.437 68.425C764.251 63.4837 776.606 63.2101 794.301 67.3432C811.944 71.5075 835.185 79.9226 860.484 93.6797C875.849 101.902 890.581 111.003 904.816 120.627C918.93 130.399 932.185 141.087 944.485 152.648C956.431 164.499 967.49 177.157 976.66 191.129C979.021 194.575 980.927 198.32 983.081 201.89L986.22 207.326L988.882 213.025C990.607 216.879 992.481 220.569 994.062 224.534L996.277 230.602C997.029 232.608 997.537 234.737 998.16 236.821C999.482 240.943 1000.22 245.267 1001.23 249.505C1001.88 253.858 1002.74 258.157 1003.07 262.608C1004.08 271.415 1004.14 280.469 1003.74 289.63C1003.37 298.775 1002.06 308.114 1000.45 317.485C998.597 326.874 996.262 336.332 993.209 345.828C987.028 364.812 978.454 383.924 966.816 402.573C961.046 411.893 954.617 421.113 947.272 430.042C943.75 434.552 939.735 438.888 935.853 443.268C931.731 447.543 927.694 451.842 923.215 455.936C910.426 468 895.929 479.106 880.3 488.51C864.686 497.881 847.821 505.471 831.219 511.04C814.59 516.625 798.193 520.43 782.289 523.416C766.374 526.383 750.879 528.526 735.704 530.675C705.48 534.946 675.927 539.159 648.723 549.137C641.954 551.655 635.383 554.501 629.031 557.712C622.68 560.923 616.636 564.643 610.846 568.609C605.019 572.572 599.673 577.039 594.621 581.702C589.58 586.383 584.936 591.371 580.789 596.656C563.918 617.742 554.547 642.428 550.234 666.498C545.924 690.689 546.348 714.659 550.064 737.363C552.057 748.733 554.598 760.368 557.216 771.957C559.793 783.596 562.478 795.294 564.729 807.328C569.252 831.309 572.376 856.656 569.248 884.21C567.584 896.593 565.204 909.309 560.387 922.254L558.718 927.087L556.629 931.925C555.191 935.153 553.863 938.389 552.351 941.612C550.665 944.84 549.028 948.089 547.232 951.309C545.304 954.485 543.493 957.739 541.432 960.871C525.081 986.265 501.702 1009.36 475.575 1028.08C449.392 1046.89 420.559 1061.65 391.317 1072.46C362.027 1083.25 332.199 1090.16 303.197 1092.77C288.704 1094.06 274.439 1094.27 260.61 1093.27C257.202 1092.94 253.661 1092.74 250.412 1092.27L240.58 1090.82C237.35 1090.26 233.949 1090 230.833 1089.22L221.394 1087.14C196.338 1081.39 173.624 1072.21 153.354 1060.71C112.797 1037.62 82.0238 1005.85 57.1964 971.007L48.7283 958.55L40.6999 945.827C35.4279 937.206 30.5995 928.267 26.2216 919.081C17.4509 900.744 10.6157 881.288 6.03267 860.772C1.46066 840.274 -0.585697 818.526 0.984179 795.639C2.55018 772.805 8.0615 748.559 19.5369 724.144C30.883 699.807 48.572 675.519 70.8814 654.68C93.298 633.727 118.917 616.855 144.026 602.352C169.216 587.925 194.167 575.381 217.782 562.377C241.451 549.463 263.542 535.862 282.209 520.327C284.187 518.637 286.378 517.066 288.191 515.277L293.758 510.005C297.629 506.601 300.923 502.825 304.394 499.166C310.931 491.644 317.004 483.88 322.154 475.755C327.218 467.605 331.794 459.23 335.534 450.638C339.225 442.025 342.446 433.274 344.996 424.406C350.148 406.638 353.399 388.527 355.826 370.217C358.3 351.928 360.001 333.41 362.131 314.608C364.338 295.76 366.79 276.615 371.138 256.872C375.346 237.189 381.551 216.898 390.778 196.473C409.646 155.2 442.229 116.137 481.662 84.2219C500.242 69.1861 522.086 53.7717 546.095 40.6033C570.042 27.448 596.203 16.7339 621.3 10.3382C626.476 9.15386 632.106 7.67047 637.996 6.50198C643.871 5.54162 650.127 4.27701 656.499 3.43912C659.673 3.08912 662.885 2.74173 666.159 2.38136C669.408 2.03659 672.749 1.6112 675.989 1.54481C679.247 1.39257 682.543 1.24294 685.839 1.09331C687.471 1.05232 689.149 0.90988 690.778 0.920916L695.624 1.00344C698.868 1.05933 702.085 1.13081 705.302 1.2023C708.535 1.23997 711.578 1.66522 714.684 1.90318C717.775 2.17495 720.83 2.4441 723.858 2.72886C726.787 3.19829 729.667 3.6469 732.511 4.09289C735.34 4.57269 738.151 4.96403 740.802 5.501C743.409 6.13943 745.958 6.7388 748.458 7.31734C750.944 7.9297 753.345 8.51861 755.661 9.08407C757.866 9.816 760.012 10.5089 762.074 11.1783C763.844 11.7748 765.604 12.353 767.386 12.9677L770.047 13.8715L772.597 14.9418C775.998 16.3689 779.424 17.7803 782.813 19.1891C786.162 20.6474 789.292 22.3865 792.574 23.9098C794.197 24.6701 795.805 25.4642 797.416 26.2064C798.957 27.0655 800.462 27.922 801.955 28.7604C805.401 30.7312 808.882 32.408 811.767 34.4437C814.653 36.4793 817.41 38.4186 820.002 40.259C820.634 40.7224 821.266 41.1857 821.899 41.6491C822.479 42.1436 823.034 42.6538 823.578 43.1457C824.665 44.1296 825.741 45.0952 826.77 46.04C828.79 47.927 830.759 49.6709 832.419 51.4277C835.527 55.1181 838.073 58.4024 840.082 61.2651C841.947 64.2395 843.017 66.9483 843.757 69.1106C846.57 77.9237 841.345 79.4358 829.375 76.1973C826.761 75.4886 825.223 76.7394 823.117 76.991C822.044 77.1415 820.946 76.9589 819.316 76.3027C817.671 75.6802 815.622 74.5061 812.983 72.4705C812.539 72.1425 811.649 71.4866 811.252 71.1794C809.242 69.6592 806.917 68.3783 804.696 67.035C802.475 65.6916 800.305 64.3171 798.172 62.9452L791.342 59.1649C789.05 57.9386 787.01 56.4861 784.559 55.4054C779.787 53.1661 775.404 50.5185 770.402 48.5419L763.175 45.274L755.571 42.4326C750.64 40.3389 745.186 38.9579 739.955 37.244C737.382 36.3116 734.491 35.8447 731.777 35.1464C728.997 34.5132 726.287 33.7628 723.451 33.2128C712.029 31.2337 700.288 29.5458 687.86 29.6399C680.349 29.3508 672.518 30.0503 664.81 30.4271C656.985 31.3711 649.18 32.055 641.253 33.7066L635.334 34.7684C633.346 35.098 631.376 35.6905 629.391 36.1424C625.44 37.1347 621.475 37.9865 617.542 39.0673L605.701 42.7077L602.73 43.6302L599.796 44.7296L593.917 46.9101L588.026 49.0724C586.055 49.8392 584.135 50.749 582.197 51.5704C578.339 53.3017 574.408 54.8534 570.579 56.6913L559.129 62.382C557.209 63.2918 555.351 64.363 553.482 65.416L547.901 68.5593C533.068 77.0611 518.681 86.5361 505.428 97.1901C492.12 107.753 479.462 119.042 468.393 131.211C457.281 143.307 446.943 155.929 438.69 169.083C430.327 182.229 423.257 195.414 418.087 209.118C412.821 222.78 408.973 236.63 406.047 250.545C400.195 278.376 397.939 306.322 395.261 334.797C392.484 363.282 389.682 392.428 380.933 423.174C376.556 438.486 370.594 454.208 362.265 469.867C354.036 485.515 343.098 501.059 330.002 515.42C326.686 518.986 323.44 522.609 319.772 525.94C316.162 529.311 312.666 532.811 308.906 536.049L297.445 545.523C293.597 548.614 289.536 551.412 285.588 554.34C269.576 565.74 253.019 575.828 236.543 584.998C216.304 596.289 196.194 606.509 176.816 617.007C157.438 627.505 138.719 638.277 121.761 650.272C119.673 651.78 117.419 653.189 115.423 654.791L109.39 659.524C107.42 661.11 105.295 662.616 103.443 664.28L97.8734 669.255C90.2273 675.756 83.6402 682.96 77.4285 690.261C71.1911 697.577 65.8625 705.289 61.1047 713.129C56.3101 720.966 52.3992 729.04 49.1367 737.195C47.4263 741.258 46.1212 745.35 44.7166 749.453C43.5588 753.555 42.2646 757.665 41.4276 761.773C40.3804 765.883 39.7533 769.988 38.9899 774.101C38.4625 778.196 37.7987 782.299 37.5331 786.36C36.0575 802.68 36.9531 818.662 39.3652 834.177C44.2632 865.212 55.6224 894.213 71.0717 920.522C79.7647 934.931 89.6465 948.796 100.309 961.968C110.982 975.157 122.623 987.613 134.837 999.674L134.411 999.26C147.798 1011.33 162.563 1022.13 178.688 1031.26C194.823 1040.41 212.459 1047.66 231.292 1052.92C235.602 1054.39 240.347 1055.18 244.909 1056.26C247.218 1056.75 249.498 1057.31 251.811 1057.76L258.968 1058.81C268.527 1060.44 278.019 1061.15 288.025 1061.25C307.96 1061.5 329.182 1058.73 350.423 1053.72C371.704 1048.66 393.081 1041.01 413.451 1031.28C433.814 1021.47 453.102 1009.37 469.901 995.529C486.737 981.695 500.731 965.897 510.887 949.409C512.067 947.331 513.453 945.302 514.511 943.198L517.781 936.926L520.569 930.498C521.469 928.365 522.579 926.23 523.184 924.076C524.567 919.763 526.356 915.479 527.26 911.131L528.917 904.641C529.375 902.476 529.685 900.302 530.08 898.15C533.037 880.837 532.997 863.642 531.08 846.785C529.241 829.881 525.886 813.271 522.361 796.613C521.29 791.272 519.085 784.402 517.397 776.576Z" fill="#35322C" fill-opacity="0.05"/>
</svg>
