<svg width="495" height="556" viewBox="0 0 495 556" fill="none" xmlns="http://www.w3.org/2000/svg">
<g clip-path="url(#clip0_183_258)">
<g clip-path="url(#clip1_183_258)">
<path d="M122.349 97.1609C125.315 97.1609 128.294 95.9585 130.714 93.7471C133.506 91.1926 135.03 87.7522 134.895 84.2985C134.819 82.3801 134.368 80.6849 133.647 79.2228C133.888 78.9974 134.115 78.7584 134.329 78.5067C137.012 75.3494 137.96 69.2812 135.03 65.6243C130.968 60.552 126.724 60.9549 123.633 61.2514C121.74 61.4312 120.634 61.4978 119.884 60.7784C119.031 59.9625 119.094 59.6294 119.933 57.6711C120.848 55.5362 122.231 52.309 120.203 47.6129C117.81 42.071 110.423 37.8646 104.997 38.957L105.639 42.2242C109.573 41.4315 115.403 44.822 117.184 48.9452C118.636 52.3123 117.76 54.3639 116.911 56.3455C116.075 58.2972 115.035 60.7251 117.622 63.1964C119.495 64.9882 121.859 64.7617 123.943 64.5619C126.816 64.2888 129.522 64.029 132.475 67.7159C134.111 69.7575 133.792 74.0238 131.833 76.3319L131.725 76.4551C129.361 73.9472 125.974 72.6483 122.813 72.6617C118.889 72.6783 116.187 74.7166 116.091 77.7374C116.022 79.8722 117.224 81.5874 119.387 82.4367C122.567 83.689 127.327 83.0095 130.908 81.1278C131.303 82.0737 131.554 83.1694 131.603 84.425C131.698 86.8862 130.569 89.3808 128.505 91.2692C126.425 93.1709 123.722 94.1001 121.27 93.7471L120.805 97.0443C121.316 97.1176 121.831 97.1543 122.346 97.1542L122.349 97.1609ZM129.006 78.3968C126.217 79.7323 122.606 80.1386 120.582 79.3393C119.347 78.8531 119.37 78.177 119.38 77.8506C119.419 76.5817 121.138 76.0055 122.823 75.9988C124.654 75.9855 127.179 76.6882 129.006 78.3968Z" fill="#9C4E78"/>
<path d="M-175.294 291.432C-172.003 327.468 -159.888 364.237 -138.096 393.212C-117.389 420.756 -88.947 441.505 -57.5419 454.927C-24.5238 469.048 11.4241 475.409 47.1746 476.375C82.5629 477.274 118.05 474.943 152.22 465.085C185.699 455.46 217.335 438.874 242.617 414.461C254.665 402.838 265.167 389.482 273.396 374.828C282.35 358.908 288.77 341.29 293.181 323.538C296.901 308.584 299.534 293.131 299.633 277.677C299.699 274.147 299.6 270.583 299.337 267.02C284.457 63.0264 158.014 55.3995 156.335 58.3303C156.302 58.3969 152.747 66.2902 150.443 70.4534C144.748 81.0444 136.584 91.0692 123.58 88.0384C108.767 84.5747 107.68 64.2919 106.627 58.297C105.442 51.5694 103.598 45.2415 100.537 39.08C94.1834 26.2576 83.5175 14.1346 69.4939 10.0713C63.3709 8.4727 55.7665 9.1055 49.8081 11.0372C43.718 13.0022 38.4509 16.9322 34.0727 21.5616C24.7565 31.4865 19.0943 44.4421 16.757 57.7975C14.9136 68.4551 12.313 84.1417 0.264465 87.9052C-24.1288 95.4987 -37.1319 58.1971 -51.3202 49.0715C-131.545 -2.45135 -173.253 241.441 -174.241 247.236C-176.743 261.691 -176.644 276.845 -175.294 291.432Z" fill="#E6A1C8"/>
<path d="M145.541 119.645C146.134 120.877 259.113 286.57 260.858 286.77C266.816 287.403 298.551 278.277 299.637 277.677C309.644 272.449 318.368 265.121 326.203 256.895C332.885 249.834 351.913 215.564 352.67 212.266C352.802 211.667 320.672 89.171 320.376 87.972C318.269 78.6133 313.068 69.9207 307.768 62.1606C298.353 48.4722 287.226 36.2826 272.742 28.0562C247.526 13.7018 215.446 11.82 189.423 25.4251C160.691 40.4457 151.714 66.1905 150.446 70.4535C139.682 106.649 144.982 118.513 145.541 119.645Z" fill="#E6A1C8"/>
<path d="M263.287 106.326C279.48 80.9145 352.67 56.3554 402.365 78.2501C421.307 86.593 467.153 118.689 466.103 173.856C466.597 173.556 490.441 185.722 494.065 224.256C495.951 244.316 489.766 265.221 480.65 283.083C469.231 305.457 451.168 323.199 429.783 335.591C378.36 365.393 337.352 372.304 330.364 372.567C324.731 372.78 318.799 371.837 314.197 368.327C306.79 362.682 302.698 349.413 307.959 341.063C309.031 339.392 310.463 337.987 312.149 336.957C303.413 310.07 304.864 279.819 319.122 255.096C321.099 251.682 323.296 248.404 325.699 245.281C326.387 244.386 327.078 243.48 327.796 242.59C227.603 266.427 254.919 119.675 263.287 106.33V106.326Z" fill="#E6A1C8"/>
<path d="M298.926 344.431C302.767 342.669 307.369 342.895 310.902 345.31C311.613 345.796 311.994 346.799 311.491 347.588C311.033 348.307 310.003 348.707 309.239 348.184C308.705 347.818 308.139 347.502 307.547 347.242C307.814 347.355 307.241 347.132 307.188 347.115C306.576 346.907 305.947 346.751 305.309 346.649C305.628 346.699 305.088 346.629 305.025 346.622C304.3 346.563 303.57 346.574 302.846 346.655C302.408 346.732 301.974 346.832 301.546 346.955C301.218 347.054 300.896 347.171 300.581 347.305C299.798 347.665 298.774 347.558 298.33 346.709C297.948 345.979 298.083 344.814 298.919 344.431H298.926ZM299.419 358.955C299.525 359.012 299.637 359.058 299.742 359.115C299.962 359.238 299.396 358.988 299.808 359.145C300.208 359.3 300.619 359.421 301.039 359.508L301.388 359.571C301.585 359.611 301.125 359.554 301.444 359.574C301.895 359.609 302.348 359.616 302.8 359.594L303.156 359.564C303.327 359.548 303.297 359.541 303.146 359.568C303.383 359.524 303.617 359.485 303.85 359.428C304.267 359.322 304.677 359.192 305.078 359.038C304.772 359.151 305.078 359.038 305.144 359.005C305.659 358.757 306.15 358.461 306.612 358.122C306.82 357.966 306.332 358.372 306.668 358.069L306.882 357.879C307.057 357.717 307.225 357.547 307.386 357.37L307.573 357.153C307.88 356.8 307.392 357.413 307.669 357.033C308.176 356.334 309.121 355.914 309.921 356.437C310.609 356.883 311.056 357.963 310.51 358.715C307.62 362.708 302.135 364.104 297.754 361.829C296.987 361.43 296.7 360.277 297.164 359.551C297.391 359.177 297.752 358.907 298.172 358.795C298.591 358.684 299.04 358.742 299.419 358.955ZM304.472 368.414C304.972 368.333 305.465 368.214 305.947 368.057C306.188 367.977 306.461 367.904 306.688 367.784C306.451 367.911 306.566 367.834 306.737 367.754L307.063 367.591C307.496 367.368 307.913 367.114 308.311 366.832C308.403 366.765 308.525 366.702 308.607 366.615C308.334 366.905 308.577 366.638 308.656 366.572C308.86 366.402 309.058 366.226 309.249 366.042C309.588 365.716 310.042 365.326 310.276 364.91C310.148 365.14 310.204 365.007 310.312 364.857C310.663 364.356 310.975 363.83 311.247 363.281L311.402 362.948C311.56 362.609 311.31 363.218 311.422 362.895C311.604 362.396 311.753 361.885 311.869 361.366C312.05 360.514 313.081 359.937 313.894 360.204C314.31 360.33 314.661 360.613 314.875 360.995C315.089 361.376 315.149 361.827 315.043 362.252C314.049 366.918 310.019 370.858 305.348 371.621C304.502 371.761 303.534 371.401 303.324 370.459C303.142 369.659 303.564 368.563 304.472 368.414ZM312.847 374.608C313.005 374.608 313.16 374.598 313.318 374.592C313.15 374.598 313.203 374.615 313.341 374.585C313.619 374.525 313.893 374.446 314.161 374.349C314.325 374.292 314.012 374.435 314.273 374.302C314.65 374.109 315.014 373.891 315.362 373.649C315.438 373.596 315.55 373.513 315.412 373.619C315.744 373.352 316.061 373.065 316.36 372.76C316.659 372.458 316.944 372.141 317.212 371.811C317.235 371.784 317.485 371.464 317.38 371.604C317.428 371.53 317.48 371.457 317.535 371.388L317.762 371.058C318.217 370.37 318.616 369.644 318.954 368.89C319.075 368.62 318.94 368.937 319.003 368.77L319.145 368.397C319.435 367.593 319.654 366.765 319.8 365.922C319.948 365.063 321.034 364.5 321.824 364.76C322.739 365.06 323.134 365.886 322.973 366.808C322.512 369.453 321.337 371.891 319.688 373.979C318.019 376.09 315.626 377.932 312.844 377.939C311.981 377.939 311.158 377.173 311.198 376.274C311.206 375.835 311.382 375.416 311.689 375.106C311.996 374.795 312.41 374.617 312.844 374.608H312.847Z" fill="#E6A1C8"/>
<path d="M308.485 273.924C316.271 252.685 331.614 232.829 353.364 225.219C358.542 223.399 363.98 222.449 369.462 222.408C371.582 222.394 371.582 225.725 369.462 225.738C349.174 225.852 331.568 239.74 320.85 256.279C317.109 262.087 314.027 268.303 311.662 274.81C310.931 276.802 307.745 275.939 308.485 273.924ZM284.714 126.862C301.352 113.674 324.566 110.296 344.387 117.584C364.093 124.831 378.067 142.559 382.205 163.188C384.48 174.535 383.798 186.445 379.703 197.296C378.956 199.277 375.772 198.418 376.53 196.41C383.416 178.169 380.325 157.047 369.406 141.07C357.904 124.238 338.063 115.822 318.111 117.327C306.922 118.173 295.9 122.196 287.042 129.217C285.392 130.523 283.048 128.185 284.714 126.862Z" fill="#DD70AB"/>
<path d="M370.532 136.947C378.613 139.578 387.758 137.08 393.447 130.706C394.869 129.11 397.19 131.472 395.774 133.06C389.348 140.264 378.785 143.128 369.656 140.158C367.648 139.505 368.507 136.288 370.532 136.947ZM379.502 333.433C405.558 317.111 424.661 290.36 432.479 260.435C434.676 252.034 435.948 243.412 436.272 234.727C436.351 232.589 439.643 232.579 439.564 234.727C438.385 266.57 424.526 297.461 402.065 319.735C395.723 326.021 388.713 331.579 381.165 336.308C379.357 337.44 377.705 334.559 379.502 333.433Z" fill="#DD70AB"/>
<path d="M-245.142 140.161C-254.271 143.132 -264.835 140.267 -271.261 133.063C-272.676 131.475 -270.355 129.114 -268.933 130.709C-263.245 137.083 -254.1 139.581 -246.018 136.95C-243.997 136.291 -243.131 139.508 -245.142 140.161ZM-256.651 336.307C-283.421 319.538 -303.107 292.075 -311.142 261.321C-313.409 252.629 -314.719 243.71 -315.05 234.727C-315.129 232.582 -311.837 232.586 -311.758 234.727C-310.612 265.701 -297.06 295.722 -275.224 317.38C-269.086 323.469 -262.301 328.852 -254.992 333.43C-253.195 334.556 -254.844 337.44 -256.654 336.304L-256.651 336.307ZM-166.139 169.749C-192.277 200.809 -232.113 218.055 -272.38 215.563C-284.518 214.817 -296.493 212.354 -307.956 208.246C-309.938 207.534 -309.085 204.316 -307.08 205.036C-268.482 218.884 -225.039 212.869 -191.632 188.909C-183.057 182.739 -175.275 175.511 -168.467 167.394C-167.091 165.759 -164.773 168.127 -166.139 169.749ZM-167.071 67.6025C-173.158 73.018 -177.818 79.8807 -180.63 87.5722C-181.355 89.5671 -184.538 88.7045 -183.804 86.6862C-180.834 78.4411 -175.882 71.0735 -169.395 65.2478C-167.812 63.8323 -165.474 66.1803 -167.068 67.6025H-167.071ZM-161.58 198.295C-153.146 220.373 -139.886 240.426 -124.042 257.758C-107.526 275.826 -87.8571 291.729 -66.1929 303.029C-54.2947 309.221 -41.6538 313.828 -28.5858 316.734C-19.3157 318.792 -9.55843 318.742 -0.176411 317.567C9.75865 316.321 19.7925 313.63 28.6478 308.824C37.671 303.928 44.0409 296.701 48.5212 287.406C58.5649 266.557 56.5931 242.344 57.3667 219.846C57.4582 217.12 57.6009 214.395 57.7946 211.673C57.9493 209.549 61.2412 209.532 61.0865 211.673C59.4043 234.974 62.3111 259.266 54.4236 281.704C50.9078 291.705 45.305 301.197 36.7789 307.585C28.7399 313.607 18.9366 317.174 9.23526 319.299C-0.782097 321.493 -11.2439 322.293 -21.4522 321.217C-33.6883 319.928 -45.8388 315.772 -57.1203 310.962C-80.5589 300.974 -101.864 285.001 -119.848 266.94C-137.006 249.708 -151.651 229.532 -161.491 207.127C-162.643 204.506 -163.726 201.852 -164.75 199.177C-165.514 197.176 -162.334 196.31 -161.577 198.291L-161.58 198.295ZM57.5839 202.907C55.5297 177.559 40.8279 153.899 19.7958 140.157C13.7902 136.223 7.27952 133.142 0.445801 130.999C-1.57215 130.369 -0.709698 127.152 1.32143 127.788C26.5047 135.655 46.9378 156.054 56.0795 180.946C58.6635 188.01 60.2774 195.4 60.8758 202.907C61.0503 205.042 57.7551 205.032 57.5839 202.907Z" fill="#DD70AB"/>
<path d="M-209.639 202.964C-199.669 222.012 -185.46 238.455 -168.134 250.997C-166.426 252.232 -168.065 255.12 -169.797 253.871C-187.604 241.03 -202.218 224.177 -212.483 204.643C-213.474 202.751 -210.633 201.066 -209.642 202.961L-209.639 202.964ZM287.348 65.2478C293.834 71.0744 298.785 78.4417 301.756 86.6862C302.487 88.7012 299.307 89.5705 298.583 87.5722C295.768 79.8818 291.109 73.0196 285.024 67.6025C283.434 66.1803 285.764 63.8323 287.348 65.2478ZM282.699 199.181C274.134 221.788 260.775 242.311 244.635 260.116C227.803 278.68 207.571 295.156 185.311 306.579C173.463 312.661 160.625 317.447 147.595 320.151C137.887 322.166 127.778 322.053 117.994 320.701C107.838 319.299 97.6729 316.438 88.676 311.385C79.6792 306.333 73.194 298.939 68.6446 289.66C58.1137 268.185 59.9276 243.41 59.1605 220.16C59.0684 217.332 58.9301 214.504 58.726 211.68C58.5746 209.542 61.8665 209.552 62.0179 211.68C63.6277 234.194 60.9118 257.541 68.0092 279.336C71.2386 289.254 76.6506 299.009 85.1602 305.204C93.0312 310.936 102.446 314.283 111.871 316.274C121.569 318.326 131.695 318.962 141.548 317.783C146.914 317.14 152.171 315.712 157.346 314.176C163.833 312.263 170.191 309.928 176.38 307.186C198.788 297.194 219.129 281.631 236.319 264.109C252.749 247.363 266.704 227.9 276.247 206.315C277.412 203.672 278.506 200.998 279.526 198.295C280.277 196.313 283.46 197.172 282.699 199.181ZM58.0281 202.908C60.181 176.333 75.3799 151.701 97.4457 137.283C103.697 133.202 110.473 130.007 117.582 127.788C119.61 127.155 120.479 130.369 118.458 130.999C94.4402 138.502 74.7248 158.069 66.0011 181.832C63.4962 188.608 61.9223 195.699 61.3233 202.908C61.1522 205.029 57.8569 205.046 58.0314 202.908H58.0281ZM330.429 204.646C320.164 224.181 305.55 241.034 287.743 253.874C286.014 255.12 284.368 252.236 286.08 251C303.406 238.458 317.615 222.015 327.585 202.967C328.579 201.072 331.42 202.754 330.426 204.649L330.429 204.646ZM73.5035 311.778C102.696 323.588 123.093 350.875 126.537 382.488C127.504 391.394 127.047 400.383 125.391 409.176C124.996 411.277 121.823 410.388 122.218 408.29C127.778 378.768 117.523 347.688 94.6673 328.264C88.0644 322.685 80.626 318.204 72.6311 314.989C70.6889 314.203 71.5316 310.979 73.5035 311.778Z" fill="#DD70AB"/>
<path d="M97.1301 366.738C86.8855 371.648 73.5301 377.196 63.3219 369.03C53.0181 360.787 55.1381 346.083 57.3668 334.702C57.7783 332.601 60.9517 333.49 60.5402 335.588C58.588 345.566 56.2508 359.045 65.3267 366.405C74.2742 373.666 86.5794 368.121 95.4676 363.864C97.3736 362.952 99.0459 365.822 97.1301 366.738ZM101.265 440.106C98.5884 450.521 88.3669 458.46 77.6319 457.834C66.8969 457.208 57.505 448.369 56.0203 437.651C55.7306 435.557 58.9008 434.651 59.1938 436.766C60.4677 445.988 68.2762 453.938 77.6286 454.504C86.981 455.07 95.7639 448.262 98.0847 439.22C98.618 437.149 101.795 438.024 101.258 440.106H101.265ZM249.695 303.522C252.128 310.596 250.89 318.782 246.353 324.727C241.995 330.443 234.93 333.74 227.81 333.49C225.697 333.417 225.687 330.086 227.81 330.159C233.917 330.373 240.007 327.638 243.763 322.709C247.7 317.54 248.618 310.519 246.518 304.411C245.82 302.383 249 301.51 249.691 303.525L249.695 303.522ZM200.171 324.981C203.766 332.554 202.883 341.866 197.649 348.457C192.534 354.898 183.794 357.739 175.89 355.944C173.822 355.475 174.698 352.264 176.765 352.734C183.408 354.242 190.713 351.758 195.059 346.432C199.47 341.017 200.316 332.957 197.33 326.666C196.418 324.744 199.256 323.049 200.171 324.981ZM223.735 353.799C226.204 360.783 224.024 369.313 218.323 374.049C212.371 378.995 203.522 379.564 196.997 375.404C195.21 374.265 196.859 371.381 198.66 372.53C203.96 375.911 211.433 375.674 216.262 371.468C220.953 367.385 222.635 360.544 220.561 354.685C219.847 352.664 223.027 351.794 223.735 353.799ZM42.4707 314.989C14.7691 326.196 -4.88046 352.491 -8.14606 382.488C-9.073 391.094 -8.72684 399.791 -7.11899 408.293C-6.72394 410.388 -9.8974 411.284 -10.2924 409.179C-16.1356 378.149 -5.38742 345.3 18.9959 325.167C25.8111 319.567 33.4321 315.053 41.5951 311.782C43.5637 310.986 44.4163 314.203 42.4707 314.989Z" fill="#DD70AB"/>
<path d="M18.5117 363.864C27.4 368.124 39.7052 373.666 48.6527 366.405C57.7253 359.045 55.3913 345.57 53.4392 335.588C53.031 333.493 56.2011 332.597 56.6126 334.702C58.838 346.083 60.9612 360.784 50.6575 369.03C40.4525 377.196 27.0938 371.648 16.8493 366.738C14.9367 365.823 16.6057 362.948 18.5117 363.864ZM13.0142 407.537C18.5216 414.132 27.1267 417.326 35.5706 416.433C40.018 415.963 44.3798 414.225 47.8264 411.324C49.7797 409.651 51.533 407.753 53.0507 405.669C54.4926 403.72 56.3427 401.685 56.1517 399.101H59.4437C59.4272 401.625 61.0435 404.057 62.3932 406.092C63.7429 408.127 65.4021 409.968 67.2883 411.51C70.7087 414.305 74.9882 415.967 79.3434 416.436C87.7774 417.345 96.4022 414.122 101.9 407.54C103.269 405.902 105.587 408.267 104.227 409.895C97.8375 417.545 87.4942 421.032 77.7896 419.57C72.8688 418.841 68.2518 416.72 64.4704 413.452C60.6584 410.152 56.1188 404.433 56.1517 399.108C56.1649 396.943 59.289 396.993 59.4437 399.108C59.6511 401.932 58.2158 404.163 56.6258 406.348C54.8317 408.809 52.9684 411.194 50.6871 413.222C46.866 416.619 42.1541 418.824 37.121 419.57C27.4164 421.032 17.0732 417.549 10.6835 409.895C9.32397 408.267 11.6414 405.899 13.0109 407.54L13.0142 407.537ZM17.0106 439.22C19.338 448.283 28.1505 455.04 37.4667 454.504C46.7829 453.968 54.6309 445.965 55.9015 436.766C56.1945 434.651 59.368 435.55 59.075 437.652C57.5936 448.369 48.1589 457.212 37.4634 457.834C26.7679 458.457 16.507 450.517 13.8306 440.106C13.2973 438.031 16.4708 437.145 17.004 439.22H17.0106ZM-131.423 304.408C-133.523 310.516 -132.605 317.54 -128.667 322.706C-124.911 327.635 -118.821 330.373 -112.715 330.156C-110.595 330.083 -110.598 333.413 -112.715 333.487C-119.832 333.736 -126.896 330.439 -131.258 324.724C-135.791 318.779 -137.032 310.593 -134.599 303.519C-133.908 301.507 -130.728 302.373 -131.426 304.405L-131.423 304.408ZM-82.2314 326.659C-85.2106 332.941 -84.3843 341.027 -79.9599 346.426C-75.6014 351.748 -68.323 354.242 -61.6667 352.727C-59.6026 352.257 -58.7236 355.468 -60.791 355.938C-68.6949 357.733 -77.4317 354.892 -82.5507 348.451C-87.7849 341.86 -88.6671 332.551 -85.0723 324.974C-84.1572 323.042 -81.3162 324.734 -82.2314 326.659ZM-105.463 354.685C-107.536 360.547 -105.851 367.385 -101.163 371.468C-96.334 375.674 -88.8613 375.911 -83.5613 372.53C-81.7639 371.384 -80.1114 374.265 -81.8989 375.404C-88.4235 379.564 -97.2722 378.991 -103.224 374.049C-108.926 369.313 -111.105 360.78 -108.636 353.799C-107.928 351.794 -104.745 352.66 -105.463 354.685Z" fill="#DD70AB"/>
<path d="M58.5912 358.995C61.4491 373.603 61.5205 388.629 58.8018 403.264C58.4134 405.369 55.24 404.476 55.6284 402.378C58.2286 388.328 58.1571 373.904 55.4177 359.881C55.0095 357.786 58.1797 356.89 58.5912 358.995Z" fill="#DD70AB"/>
<path d="M58.7359 402.715C61.1839 414.231 61.2456 426.136 58.917 437.678C58.4956 439.776 55.3189 438.887 55.7435 436.792C57.9491 425.838 57.8833 414.528 55.5625 403.6C55.1181 401.509 58.2915 400.616 58.7359 402.715ZM-56.2283 142.839C-45.4012 120.341 -49.9243 92.8611 -67.3781 75.1695C-71.8642 70.6315 -77.0441 66.8551 -82.7185 63.9856C-84.6114 63.0231 -82.9457 60.1489 -81.0562 61.1114C-58.592 72.5317 -44.8942 97.2707 -47.2907 122.636C-48.0117 130.263 -50.0724 137.636 -53.3841 144.524C-54.3124 146.452 -57.1501 144.764 -56.2251 142.842L-56.2283 142.839ZM-94.7177 180.244C-86.2442 158.459 -93.7004 133.29 -112.909 120.128C-114.654 118.932 -113.008 116.045 -111.246 117.254C-101.859 123.663 -94.7206 132.918 -90.8562 143.688C-86.5734 155.724 -86.9256 169.253 -91.5442 181.129C-92.3112 183.101 -95.4945 182.242 -94.7177 180.244ZM-129.033 201.925C-126.643 192.323 -130.554 181.532 -138.602 175.857C-140.327 174.642 -138.685 171.751 -136.94 172.983C-127.657 179.531 -123.088 191.684 -125.856 202.814C-126.373 204.893 -129.55 204.01 -129.03 201.928L-129.033 201.925ZM168.914 144.521C157.533 120.877 161.938 92.0951 180.139 73.2678C184.922 68.3262 190.479 64.2187 196.586 61.1114C198.475 60.1522 200.141 63.0231 198.248 63.9856C176.953 74.8131 164.048 97.8635 166.05 121.926C166.664 129.193 168.599 136.283 171.758 142.839C172.683 144.757 169.839 146.449 168.914 144.521ZM207.067 181.126C202.449 169.25 202.096 155.721 206.379 143.685C210.244 132.914 217.382 123.66 226.769 117.25C228.527 116.045 230.177 118.929 228.432 120.125C209.223 133.287 201.767 158.455 210.241 180.24C211.018 182.235 207.834 183.101 207.067 181.126ZM241.386 202.811C238.617 191.684 243.183 179.527 252.47 172.98C254.211 171.751 255.86 174.638 254.132 175.854C246.083 181.529 242.172 192.32 244.562 201.922C245.079 204 241.906 204.889 241.389 202.808L241.386 202.811Z" fill="#DD70AB"/>
<path d="M198.067 156.254C213.895 179.821 219.498 209.752 214.112 237.645C212.569 245.563 210.123 253.274 206.824 260.622C205.951 262.57 203.114 260.882 203.983 258.94C215.225 233.785 215.597 204.263 205.899 178.548C203.142 171.283 199.561 164.365 195.226 157.936C194.031 156.157 196.882 154.489 198.067 156.254ZM-80.0455 157.936C-95.3728 180.756 -100.969 209.712 -95.7579 236.762C-94.2951 244.403 -91.9608 251.847 -88.8021 258.943C-87.9363 260.882 -90.7707 262.577 -91.643 260.625C-103.237 234.681 -103.932 204.247 -93.8914 177.666C-91.0538 170.123 -87.3608 162.939 -82.8865 156.257C-81.7014 154.495 -78.8505 156.154 -80.0455 157.936Z" fill="#DD70AB"/>
<path d="M4.15891 28.1494C6.2888 24.609 11.1609 23.7831 14.8051 25.0753C14.9795 25.1386 15.131 25.2318 15.3021 25.3051C14.1368 22.724 13.0142 20.1262 11.9838 17.4851C10.2128 12.9356 5.79828 4.4395 12.1451 1.41873C17.5439 -1.15242 22.9657 4.88912 26.2643 8.37282C30.8357 13.2115 34.5525 18.8081 37.2528 24.9188C37.9803 26.5574 20.2269 54.8067 18.7192 53.298C15.0092 49.5945 10.7296 46.4471 7.48048 42.2873C4.60663 38.6071 1.3904 32.7554 4.15891 28.1527V28.1494ZM87.4646 24.1228C90.1673 18.0126 93.885 12.4163 98.4564 7.57683C101.758 4.0898 107.173 -1.94841 112.576 0.622742C118.922 3.64684 114.508 12.1463 112.737 16.6891C111.703 19.3222 110.599 21.9265 109.425 24.4991C109.514 24.4625 109.593 24.4092 109.685 24.3759C113.375 22.9804 118.376 23.7231 120.562 27.36C123.271 31.8629 120.226 37.608 117.428 41.2516C114.146 45.5246 109.784 48.7285 106.002 52.5053C104.494 54.014 86.7371 25.7614 87.4646 24.1228Z" fill="#E6A1C8"/>
<path d="M49.2356 35.1102L37.7599 35.0336L36.1074 35.0236C33.9906 35.0103 33.9841 31.6798 36.1074 31.6931L47.5831 31.7697L49.2356 31.7797C51.3523 31.793 51.3589 35.1235 49.2356 35.1102ZM85.4469 35.1102L73.9712 35.0336L72.3186 35.0236C70.2019 35.0103 70.1953 31.6798 72.3186 31.6931L83.7943 31.7697L85.4469 31.7797C87.5636 31.793 87.5702 35.1235 85.4469 35.1102ZM23.203 39.6497C19.9736 38.7238 17.8075 35.0503 18.9268 31.7464C19.9901 28.6057 23.6836 26.8139 26.7714 27.943L24.6876 29.5483C24.5724 24.3194 22.1528 19.4768 18.1762 16.1663C16.5401 14.8041 18.8806 12.4595 20.5036 13.8116C25.132 17.665 27.8446 23.5067 27.9796 29.5516C28.0026 30.5707 26.8998 31.5233 25.8958 31.1569C24.4736 30.6374 22.673 31.1836 22.0771 32.6989C21.4714 34.2343 22.594 36.0128 24.0753 36.4391C26.1097 37.0219 25.2439 40.2359 23.1997 39.6497H23.203ZM117.184 48.9518L120.203 47.6196C117.81 42.0776 110.423 37.8712 104.998 38.9636L105.64 42.2308C109.573 41.4382 115.403 44.8286 117.184 48.9518Z" fill="#DD70AB"/>
<path d="M96.1195 29.3019C96.1195 29.3019 97.7654 19.6767 102.262 16.9723C105.235 15.1839 109.544 17.0523 111.374 20.4727C115.535 28.2361 115.479 43.1001 104.415 46.9802C101.508 47.9993 98.2362 39.673 98.2362 39.673C98.2362 39.673 103.474 38.0478 101.498 33.0287C100.866 31.4234 96.1195 29.3019 96.1195 29.3019Z" fill="#9C4E78"/>
<path d="M97.7288 38.091C99.4505 37.4615 100.57 35.2368 99.9114 33.4683C99.2267 31.6332 97.0836 30.7805 95.306 31.3367C94.2921 31.6531 93.2024 30.7905 93.2222 29.7314C93.3308 23.5467 96.287 17.8715 101.143 14.1547C101.857 13.6085 102.976 14.0448 103.394 14.7508C103.898 15.6001 103.509 16.4894 102.805 17.0289C98.9139 20.0097 96.5997 24.8223 96.5141 29.7314L94.4303 28.1261C97.9099 27.0371 101.952 29.0354 103.085 32.5823C104.24 36.1993 102.012 40.056 98.6012 41.3016C96.6063 42.031 95.7471 38.8137 97.7288 38.091ZM77.0094 105.667C79.6298 112.058 77.4143 119.948 72.1077 124.238C66.6694 128.634 58.7293 128.251 53.2351 124.141C50.3316 121.97 47.9581 118.679 47.5466 114.972C47.1647 111.515 49.2024 107.635 52.975 107.409C56.7475 107.182 59.0552 111.179 58.1828 114.619C57.3006 118.093 54.0679 120.624 50.7167 121.41C42.2992 123.389 34.8891 115.202 37.6872 106.876C38.3654 104.858 41.5454 105.724 40.8607 107.762C39.2772 112.471 42.1379 117.923 47.2536 118.376C49.7884 118.599 52.5043 117.643 54.0877 115.569C54.8251 114.603 55.3682 113.31 54.9402 112.095C54.4234 110.626 52.9881 110.39 51.8689 111.332C49.5678 113.27 51.2237 117.034 52.6721 118.989C54.0218 120.814 55.9344 122.22 58.0149 123.075C62.3438 124.854 67.4266 124.294 70.8502 120.937C74.6228 117.24 75.8408 111.452 73.8327 106.553C73.0229 104.575 76.2095 103.712 77.0094 105.667ZM21.1255 87.8654C17.3135 97.1208 10.6374 104.938 2.03886 109.957C0.201965 111.029 -1.46048 108.155 0.376419 107.082C8.17501 102.526 14.4758 95.409 17.9488 86.9795C18.2911 86.1502 19.0384 85.5573 19.9733 85.8171C20.7469 86.0336 21.4679 87.0294 21.1222 87.8654H21.1255ZM22.7155 107.092C21.7609 111.355 19.2458 115.072 15.8024 117.673C15.1111 118.196 13.9326 117.81 13.5507 117.077C13.0965 116.205 13.4026 115.359 14.14 114.799C14.3803 114.616 14.0742 114.859 14.219 114.743L14.5054 114.506C15.3795 113.773 16.173 112.947 16.8723 112.042C16.7275 112.228 16.8591 112.058 16.9283 111.962L17.1028 111.718C17.7791 110.765 18.3487 109.738 18.8014 108.658C18.7388 108.811 18.7553 108.771 18.8014 108.641L18.9331 108.291C19.1798 107.612 19.3821 106.916 19.5388 106.21C19.6579 105.786 19.937 105.427 20.3158 105.209C20.6945 104.992 21.1426 104.934 21.5633 105.047C21.9789 105.173 22.3304 105.456 22.5445 105.838C22.7586 106.22 22.8187 106.67 22.7122 107.096L22.7155 107.092ZM101.245 91.2358C106.266 101.673 114.422 110.235 124.545 115.698C126.415 116.708 124.756 119.582 122.883 118.573C112.263 112.831 103.699 103.855 98.4037 92.9144C97.4787 90.9961 100.316 89.3075 101.245 91.2358ZM100.31 115.099C100.667 115.768 101.071 116.41 101.518 117.021L101.61 117.144C101.575 117.102 101.541 117.058 101.508 117.014C101.571 117.057 101.62 117.157 101.666 117.217C102.258 117.954 102.911 118.638 103.618 119.262L104.01 119.595C104.089 119.662 104.174 119.722 104.25 119.788L104.079 119.655L104.244 119.778C104.848 120.229 105.483 120.638 106.143 121.001C106.9 121.417 107.206 122.539 106.732 123.279C106.506 123.653 106.145 123.924 105.725 124.036C105.305 124.147 104.859 124.089 104.481 123.875C101.516 122.236 99.0789 119.77 97.4589 116.771C97.0474 116.005 97.2482 114.922 98.0482 114.493C98.8152 114.083 99.862 114.273 100.3 115.089L100.31 115.099ZM76.4794 84.0253C76.8491 84.0261 77.2083 83.9009 77.4991 83.67C77.7899 83.439 77.9954 83.1157 78.0824 82.7522C78.1695 82.3887 78.1331 82.0062 77.979 81.6662C77.825 81.3262 77.5623 81.0485 77.2333 80.878C76.1305 80.3051 50.0583 67.0098 37.6378 78.1237C37.3109 78.4165 37.1123 78.8287 37.0858 79.2697C37.0592 79.7106 37.2069 80.1442 37.4963 80.475C37.7857 80.8058 38.1932 81.0067 38.6291 81.0336C39.0649 81.0604 39.4935 80.911 39.8204 80.6182C50.5785 70.993 75.4852 83.7122 75.7354 83.8421C75.9669 83.9617 76.2196 84.0244 76.4794 84.0253Z" fill="#DD70AB"/>
<path d="M123.854 449.991C142.048 471.816 148.932 501.777 143.023 529.62C141.361 537.34 138.677 544.798 135.043 551.791L130.78 544.274L143.658 544.371C150.012 544.417 150.025 554.409 143.658 554.362L130.78 554.266C126.909 554.236 124.795 550.079 126.517 546.749C137.861 524.781 138.098 497.311 127.913 474.876C125.009 468.482 121.296 462.367 116.872 457.058C115.153 454.997 114.874 452.016 116.872 449.994C118.636 448.209 122.129 447.923 123.854 449.994V449.991ZM1.11082 457.055C-14.7399 476.069 -20.5995 502.989 -15.5168 526.962C-14.0861 533.848 -11.736 540.504 -8.53127 546.749C-6.80957 550.079 -8.92628 554.236 -12.7943 554.266L-25.6724 554.362C-32.0291 554.409 -32.0357 544.417 -25.6724 544.371L-12.7943 544.274L-17.0574 551.791C-30.1428 526.449 -30.1955 495.682 -18.4532 469.831C-15.1876 462.644 -10.9048 456.029 -5.86812 449.988C-4.14644 447.923 -0.656967 448.192 1.11409 449.988C3.13533 452.033 2.83907 454.983 1.11409 457.052L1.11082 457.055Z" fill="#E6A1C8"/>
<path d="M34.2407 36.1426C41.2756 36.1426 48.4717 37.1784 53.1628 40.2857H65.3001C69.9878 37.1784 77.2268 36.1426 84.2189 36.1426C97.3241 36.1426 107.944 39.966 107.944 53.5145C107.944 67.063 104.761 76.5416 90.4867 76.5416C83.6987 76.5416 63.9899 69.1545 60.5103 53.5145C60.0069 51.4803 59.9474 49.3596 60.3359 47.2998H58.0809C58.4694 49.358 58.4101 51.4795 57.9064 53.5145C54.4268 69.1545 34.7181 76.5716 27.9301 76.5716C13.7089 76.5716 10.5256 67.063 10.5256 53.5145C10.5256 39.966 21.1421 36.1426 34.2473 36.1426H34.2407ZM37.3384 204.39C38.6552 199.833 46.6184 177.806 48.9293 171.251C50.5885 166.538 52.4287 161.819 53.8014 157.003C53.6796 156.853 40.6238 139.928 44.5675 136.254C47.1484 133.85 67.9139 133.303 72.0519 135.768C74.8632 137.44 75.3438 140.104 74.0632 142.885C72.6378 145.979 65.0006 155.138 63.4994 157.053C66.9198 167.681 79.0999 197.685 80.6537 202.268C81.0487 203.43 80.9335 204.186 80.3509 205.302C79.1197 207.647 65.9815 226.95 59.8783 233.412C59.5671 233.719 59.1495 233.891 58.7146 233.891C58.2797 233.891 57.8621 233.719 57.5509 233.412C52.0501 227.547 39.1918 209.882 37.7664 207.47C37.1244 206.385 36.9927 205.585 37.3384 204.39Z" fill="#9C4E78"/>
<path d="M81.0259 145.53C81.3771 145.529 81.719 145.416 82.0016 145.205C82.2843 144.994 82.4929 144.697 82.597 144.358C82.701 144.019 82.6951 143.654 82.5801 143.319C82.465 142.983 82.2469 142.693 81.9575 142.492L72.829 136.164C72.6508 136.037 72.4494 135.948 72.2367 135.9C72.024 135.853 71.8041 135.849 71.5897 135.888C71.3753 135.927 71.1707 136.009 70.9879 136.129C70.805 136.248 70.6474 136.404 70.5243 136.586C70.4012 136.767 70.315 136.972 70.2708 137.188C70.2265 137.404 70.225 137.626 70.2663 137.843C70.3077 138.059 70.3911 138.265 70.5118 138.449C70.6324 138.632 70.7878 138.79 70.969 138.912L80.0976 145.24C80.3708 145.43 80.6944 145.529 81.0259 145.53ZM36.5288 145.53C36.8606 145.53 37.1847 145.428 37.4571 145.236L46.5857 138.909C46.7669 138.786 46.9223 138.629 47.043 138.445C47.1636 138.262 47.247 138.056 47.2883 137.839C47.3297 137.623 47.3282 137.4 47.2839 137.185C47.2396 136.969 47.1535 136.764 47.0304 136.582C46.9073 136.4 46.7497 136.245 46.5668 136.125C46.384 136.006 46.1794 135.924 45.9651 135.884C45.7507 135.845 45.5307 135.85 45.318 135.897C45.1052 135.944 44.9039 136.034 44.7257 136.161L35.5972 142.489C35.3078 142.69 35.0897 142.98 34.9746 143.315C34.8596 143.651 34.8537 144.015 34.9578 144.354C35.0618 144.694 35.2704 144.991 35.5531 145.201C35.8358 145.412 36.1777 145.529 36.5288 145.53Z" fill="#9C4E78"/>
<path d="M187.184 166.435H90.8226V201.669H187.184V166.435Z" fill="white"/>
<path d="M90.8226 203.334H187.184C187.621 203.334 188.039 203.158 188.348 202.846C188.657 202.534 188.83 202.11 188.83 201.669V166.435C188.83 165.994 188.657 165.57 188.348 165.258C188.039 164.945 187.621 164.77 187.184 164.77H90.8226C90.386 164.77 89.9674 164.945 89.6587 165.258C89.35 165.57 89.1766 165.994 89.1766 166.435V201.669C89.1766 202.11 89.35 202.534 89.6587 202.846C89.9674 203.158 90.386 203.334 90.8226 203.334ZM185.538 200.003H92.4686V168.101H185.538V200.003Z" fill="#9C4E78"/>
<path d="M149.732 156.167H129.325V170.335H149.732V156.167Z" fill="#9C4E78"/>
<path d="M129.325 171.997H149.732C150.168 171.997 150.587 171.822 150.896 171.509C151.204 171.197 151.378 170.774 151.378 170.332V156.164C151.378 155.722 151.204 155.299 150.896 154.987C150.587 154.674 150.168 154.499 149.732 154.499H129.325C128.889 154.499 128.47 154.674 128.161 154.987C127.853 155.299 127.679 155.722 127.679 156.164V170.332C127.679 170.774 127.853 171.197 128.161 171.509C128.47 171.822 128.889 171.997 129.325 171.997ZM148.086 168.667H130.971V157.829H148.086V168.667ZM158.278 192.573C163.337 192.573 166.438 191.401 168.338 189.925C170.938 191.404 173.812 192.217 176.38 191.434C176.788 191.298 177.127 191.006 177.325 190.621C177.523 190.235 177.565 189.787 177.44 189.371C177.316 188.955 177.036 188.605 176.661 188.395C176.285 188.185 175.843 188.132 175.429 188.247C174.161 188.636 172.393 188.27 170.527 187.324C172.354 183.777 170.998 179.601 169.25 177.066C167.518 174.555 165.316 173.24 163.337 173.556C160.694 173.979 159.69 175.421 159.318 176.557C158.508 179.018 159.98 182.518 163.252 185.925C163.89 186.588 164.611 187.258 165.388 187.89C163.38 188.956 160.312 189.409 156.391 189.186C154.209 189.063 152.642 187.434 151.128 185.862C149.643 184.32 148.162 182.721 145.986 182.731C144.577 182.731 143.207 183.448 141.802 184.913C137.018 189.895 133.769 187.581 130.02 184.04C129.506 183.557 129.039 183.114 128.611 182.761C122.08 177.366 113.715 178.309 110.12 180.643C106.808 182.795 104.343 185.992 102.167 188.816C102.034 188.989 101.936 189.186 101.878 189.397C101.821 189.608 101.805 189.828 101.831 190.045C101.858 190.262 101.926 190.472 102.033 190.662C102.14 190.853 102.282 191.02 102.453 191.154C102.624 191.289 102.819 191.388 103.027 191.446C103.235 191.504 103.453 191.521 103.668 191.494C103.882 191.467 104.09 191.397 104.278 191.289C104.466 191.181 104.631 191.037 104.764 190.865C106.877 188.124 109.06 185.289 111.898 183.448C114.307 181.882 121.072 180.833 126.53 185.343C126.909 185.656 127.324 186.049 127.775 186.475C130.688 189.226 136.755 194.954 144.165 187.231C144.899 186.465 145.531 186.062 145.992 186.062C146.726 186.062 147.72 187.094 148.774 188.187C150.545 190.025 152.75 192.313 156.21 192.51C156.935 192.55 157.626 192.57 158.284 192.57L158.278 192.573ZM163.923 176.84C164.417 176.84 165.52 177.479 166.55 178.971C167.805 180.793 168.611 183.464 167.729 185.522C167.001 184.953 166.29 184.31 165.612 183.604C163.123 181.013 162.119 178.582 162.442 177.609C162.567 177.229 163.041 176.973 163.851 176.843L163.923 176.84Z" fill="#9C4E78"/>
</g>
</g>
<defs>
<clipPath id="clip0_183_258">
<rect width="494.141" height="556" fill="white"/>
</clipPath>
<clipPath id="clip1_183_258">
<rect width="863.758" height="554.366" fill="white" transform="matrix(-1 0 0 1 494.141 0)"/>
</clipPath>
</defs>
</svg>
